<svg version="1.1" id="Layer_1" xmlns="http://www.w3.org/2000/svg" xmlns:xlink="http://www.w3.org/1999/xlink" x="0px" y="0px"
	 width="217px" height="105px" viewBox="0 0 1135 851" enable-background="new 0 0 1135 851" xml:space="preserve">
<path fill="#FFFFFF" opacity="1.000000" stroke="none" 
	d="
M435.000000,852.000000 
	C290.389557,852.000000 145.779144,852.000000 1.000000,852.000000 
	C1.000000,568.333374 1.000000,284.666687 1.446574,1.358936 
	C5.691907,8.164905 9.639359,14.530771 13.222747,21.095367 
	C14.859753,24.094284 16.814133,25.086336 20.250092,25.082613 
	C115.729919,24.979097 211.209885,25.000463 306.689819,24.990187 
	C308.103241,24.990034 309.516663,24.851173 311.202698,24.762753 
	C308.375519,16.572580 305.687744,8.786291 303.000000,1.000001 
	C485.026855,1.000000 667.053711,1.000000 849.487915,1.357040 
	C846.182007,9.258520 842.468811,16.802961 838.533997,24.797743 
	C839.956970,24.893055 840.739014,24.991266 841.521118,24.991329 
	C933.803711,24.998812 1026.086304,25.014198 1118.368774,24.880798 
	C1120.056641,24.878361 1122.353638,23.510538 1123.323730,22.075089 
	C1127.752930,15.521162 1131.809448,8.715286 1136.000000,1.999991 
	C1136.000000,285.240540 1136.000000,568.481079 1136.000000,852.000000 
	C992.639954,852.000000 849.279663,852.000000 705.466736,851.739441 
	C705.001282,851.305603 704.988586,851.132263 705.057861,850.499268 
	C705.148315,807.381226 705.106873,764.722839 705.274048,722.065186 
	C705.285583,719.119507 706.242188,715.807129 707.782104,713.291382 
	C759.536133,628.743958 811.415100,544.273071 863.271362,459.788239 
	C864.436401,457.890106 865.548950,455.959778 866.810852,453.834106 
	C857.450989,453.834106 848.821228,453.834198 840.191406,453.834137 
	C785.868164,453.833740 731.544800,453.864197 677.221741,453.758942 
	C673.825684,453.752350 671.989075,454.660553 670.345398,457.803375 
	C642.620056,510.816132 614.747437,563.751892 586.899170,616.700378 
	C581.772034,626.448730 576.608521,636.177917 571.530579,645.785889 
	C541.821472,581.969482 512.270386,518.492371 482.646240,454.858276 
	C414.799103,454.858276 346.104218,454.858276 277.080292,454.858276 
	C277.807770,456.164154 278.266785,457.046967 278.778412,457.898132 
	C329.844147,542.856445 380.922363,627.807251 431.932770,712.798767 
	C433.163696,714.849731 434.342865,717.345703 434.366272,719.646118 
	C434.810760,763.285217 435.077393,806.926086 435.272003,850.921265 
	C435.108673,851.517334 435.054352,851.758667 435.000000,852.000000 
M357.499969,416.168304 
	C394.996307,416.168304 432.501038,415.728210 469.983826,416.440735 
	C481.001740,416.650177 488.779877,413.521606 496.639191,405.890167 
	C521.116699,382.122345 546.386536,359.170563 571.440430,335.817169 
	C572.500488,336.609039 573.450623,337.263123 574.340149,337.991272 
	C605.657104,363.624695 636.941345,389.298370 668.348206,414.821167 
	C670.217041,416.339874 673.048096,417.359009 675.456055,417.408356 
	C684.606995,417.595795 693.767639,417.229889 702.925354,417.176483 
	C763.398315,416.823792 823.871277,416.474854 884.344727,416.231873 
	C887.503723,416.219177 889.377441,415.461884 891.083557,412.573151 
	C910.959778,378.918793 931.004883,345.364197 950.993652,311.776245 
	C951.785950,310.445068 952.461548,309.044434 953.236084,307.592590 
	C698.081482,307.592590 443.605865,307.592590 188.682861,307.592590 
	C189.835693,309.523499 190.655273,310.955261 191.529907,312.352600 
	C212.360184,345.631714 233.246689,378.875916 253.948914,412.234467 
	C255.893250,415.367493 257.975067,416.265625 261.508240,416.249969 
	C293.171661,416.110016 324.835907,416.168304 357.499969,416.168304 
M383.823914,214.704620 
	C382.317932,210.837814 380.498657,207.057602 379.398773,203.078552 
	C378.404724,199.482452 376.453247,198.755295 372.989227,198.759308 
	C290.499817,198.854935 208.010284,198.833786 125.520760,198.833908 
	C124.113029,198.833908 122.705292,198.833908 120.528923,198.833908 
	C121.825012,200.952774 122.658508,202.342560 123.517845,203.716202 
	C138.693344,227.973907 153.929489,252.194092 168.980316,276.528900 
	C170.956512,279.724060 173.024780,280.945984 176.885941,280.938995 
	C252.209457,280.802582 327.533295,280.838379 402.857056,280.838898 
	C404.606964,280.838898 406.356903,280.838898 408.929077,280.838898 
	C400.431000,258.519653 392.231995,236.985947 383.823914,214.704620 
M850.500000,280.838379 
	C888.657837,280.838379 926.815857,280.797485 964.973328,280.912384 
	C968.187683,280.922058 970.045532,280.048676 971.720215,277.205292 
	C986.320618,252.416168 1001.091919,227.727798 1015.794983,202.999100 
	C1016.511169,201.794540 1017.064026,200.492874 1017.810181,199.002045 
	C1016.636475,198.924072 1015.975403,198.841751 1015.314392,198.841690 
	C934.999512,198.834961 854.684692,198.854141 774.369873,198.757339 
	C771.306702,198.753647 770.046509,199.900665 768.969971,202.532181 
	C761.987793,219.600204 754.861694,236.609375 747.774658,253.634445 
	C744.094116,262.475922 740.397217,271.310547 736.419617,280.838348 
	C774.652405,280.838348 812.076172,280.838348 850.500000,280.838379 
M648.556641,215.942871 
	C622.730042,190.524475 596.903442,165.106094 571.031067,139.642670 
	C524.622192,185.387253 478.703857,230.648254 432.081604,276.603149 
	C525.226868,276.603149 617.087280,276.603149 706.923340,276.603149 
	C688.217407,257.156250 668.636719,236.799973 648.556641,215.942871 
M183.499969,121.847443 
	C238.240875,121.847443 292.981781,121.847443 348.153748,121.847443 
	C347.627167,120.074387 347.336761,118.809898 346.881439,117.607887 
	C342.528229,106.116898 337.962646,94.701530 333.877655,83.116501 
	C332.512939,79.246170 330.511902,78.359756 326.638397,78.364594 
	C234.859970,78.479195 143.081360,78.453316 51.302788,78.453102 
	C49.554688,78.453094 47.806587,78.453102 45.425587,78.453102 
	C46.279087,80.111542 46.656281,80.994583 47.159142,81.799072 
	C54.737637,93.923409 62.417885,105.985466 69.858391,118.193703 
	C71.527367,120.932129 73.292419,121.947334 76.563515,121.934418 
	C111.875229,121.795013 147.187698,121.847435 183.499969,121.847443 
M814.062927,89.494492 
	C809.341736,100.122581 804.620605,110.750671 799.803711,121.594208 
	C800.989746,121.747177 801.318787,121.826782 801.647888,121.826820 
	C887.915344,121.837173 974.182922,121.861053 1060.450073,121.718010 
	C1062.282471,121.714973 1064.855225,120.248077 1065.824463,118.684296 
	C1073.353516,106.536812 1080.581665,94.202721 1087.870117,81.906822 
	C1088.402954,81.007904 1088.677734,79.956009 1089.281250,78.456589 
	C1086.875366,78.456589 1085.079468,78.456612 1083.283569,78.456589 
	C999.014526,78.455368 914.744812,78.612236 830.477600,78.216591 
	C821.727478,78.175514 816.250244,79.921806 814.062927,89.494492 
M225.500031,132.836761 
	C176.999817,132.836761 128.499603,132.836761 79.139885,132.836761 
	C87.800987,146.668701 95.911476,159.421265 103.768173,172.328323 
	C105.447540,175.087189 107.189293,176.086639 110.458664,176.082596 
	C195.111908,175.977875 279.765289,175.999817 364.418671,175.999832 
	C365.809387,175.999832 367.200073,175.999832 369.070587,175.999832 
	C363.941864,162.596405 358.945221,149.940002 354.310272,137.152481 
	C353.098022,133.807983 351.553986,132.732086 347.980652,132.744629 
	C307.487518,132.886780 266.993683,132.835922 225.500031,132.836761 
M963.500000,132.836777 
	C909.682800,132.836700 855.865417,132.883087 802.048584,132.736710 
	C798.278625,132.726456 796.465332,133.838165 795.091736,137.283035 
	C791.646423,145.923569 787.797485,154.402908 784.128784,162.954773 
	C782.325806,167.157883 780.563599,171.378525 778.735352,175.703934 
	C779.645935,175.865906 779.973022,175.975021 780.300110,175.975082 
	C863.108582,175.988144 945.917114,176.011398 1028.725342,175.871338 
	C1030.375000,175.868546 1032.657959,174.346008 1033.568970,172.868622 
	C1041.074097,160.697311 1048.333496,148.374298 1055.633301,136.076935 
	C1056.163696,135.183212 1056.425415,134.129974 1056.936157,132.836761 
	C1025.803833,132.836761 995.151917,132.836761 963.500000,132.836777 
M136.499817,67.550652 
	C200.041153,67.550652 263.582489,67.550652 327.795746,67.550652 
	C325.049286,60.369156 322.398071,54.111271 320.304047,47.672184 
	C319.279907,44.523045 317.717499,43.754879 314.598877,43.757454 
	C218.962341,43.836426 123.325714,43.820744 27.689110,43.838463 
	C26.501080,43.838684 25.313093,44.081726 23.647589,44.263557 
	C27.868523,50.986382 31.938961,57.057686 35.547783,63.391983 
	C37.338875,66.535759 39.391968,67.653854 43.029285,67.636032 
	C73.852188,67.485008 104.676155,67.550179 136.499817,67.550652 
M1016.500000,43.823994 
	C1007.672180,43.823997 998.844360,43.823997 990.016541,43.823997 
	C939.215088,43.824001 888.413696,43.809120 837.612305,43.884945 
	C835.805359,43.887638 833.048889,44.211178 832.349182,45.364479 
	C828.092651,52.380615 824.304443,59.680855 819.997009,67.549202 
	C822.695129,67.549202 824.488892,67.549187 826.282654,67.549210 
	C869.588806,67.549789 912.894958,67.550934 956.201111,67.550774 
	C1001.339417,67.550598 1046.477783,67.558556 1091.616089,67.512886 
	C1093.368652,67.511116 1096.070312,67.609039 1096.721191,66.611244 
	C1101.444336,59.370903 1105.753662,51.860748 1110.363281,44.152760 
	C1109.096558,43.944920 1108.769653,43.844440 1108.442749,43.844315 
	C1078.128540,43.832588 1047.814209,43.828533 1016.500000,43.823994 
M841.387329,713.931213 
	C836.328491,727.515686 835.347046,741.420959 837.995850,755.642822 
	C845.705444,797.037415 887.622375,823.007629 927.168945,810.863281 
	C961.907959,800.195251 982.748230,764.190735 976.070190,726.379395 
	C970.729370,696.139343 944.721313,671.054382 915.591736,668.047363 
	C882.887085,664.671265 853.620850,682.585815 841.387329,713.931213 
z"/>
<path fill="#E70012" opacity="1.000000" stroke="none" 
	d="
M302.531342,1.000001 
	C305.687744,8.786291 308.375519,16.572580 311.202698,24.762753 
	C309.516663,24.851173 308.103241,24.990034 306.689819,24.990187 
	C211.209885,25.000463 115.729919,24.979097 20.250092,25.082613 
	C16.814133,25.086336 14.859753,24.094284 13.222747,21.095367 
	C9.639359,14.530771 5.691907,8.164905 1.946574,1.358936 
	C102.020897,1.000000 202.041794,1.000000 302.531342,1.000001 
z"/>
<path fill="#E70012" opacity="1.000000" stroke="none" 
	d="
M1136.000000,1.499991 
	C1131.809448,8.715286 1127.752930,15.521162 1123.323730,22.075089 
	C1122.353638,23.510538 1120.056641,24.878361 1118.368774,24.880798 
	C1026.086304,25.014198 933.803711,24.998812 841.521118,24.991329 
	C840.739014,24.991266 839.956970,24.893055 838.533997,24.797743 
	C842.468811,16.802961 846.182007,9.258520 849.947632,1.357040 
	C945.333313,1.000000 1040.666626,1.000000 1136.000000,1.499991 
z"/>
<path fill="#FABCC2" opacity="1.000000" stroke="none" 
	d="
M435.468658,852.000000 
	C435.054352,851.758667 435.108673,851.517334 435.698425,851.053467 
	C437.062683,850.885010 437.891541,850.986572 438.720367,850.986572 
	C527.472229,850.982300 616.224060,850.970459 704.975891,850.958984 
	C704.988586,851.132263 705.001282,851.305603 705.007019,851.739441 
	C615.312439,852.000000 525.624878,852.000000 435.468658,852.000000 
z"/>
<path fill="#E70112" opacity="1.000000" stroke="none" 
	d="
M705.057861,850.499268 
	C616.224060,850.970459 527.472229,850.982300 438.720367,850.986572 
	C437.891541,850.986572 437.062683,850.885010 435.807434,850.698730 
	C435.077393,806.926086 434.810760,763.285217 434.366272,719.646118 
	C434.342865,717.345703 433.163696,714.849731 431.932770,712.798767 
	C380.922363,627.807251 329.844147,542.856445 278.778412,457.898132 
	C278.266785,457.046967 277.807770,456.164154 277.080292,454.858276 
	C346.104218,454.858276 414.799103,454.858276 482.646240,454.858276 
	C512.270386,518.492371 541.821472,581.969482 571.530579,645.785889 
	C576.608521,636.177917 581.772034,626.448730 586.899170,616.700378 
	C614.747437,563.751892 642.620056,510.816132 670.345398,457.803375 
	C671.989075,454.660553 673.825684,453.752350 677.221741,453.758942 
	C731.544800,453.864197 785.868164,453.833740 840.191406,453.834137 
	C848.821228,453.834198 857.450989,453.834106 866.810852,453.834106 
	C865.548950,455.959778 864.436401,457.890106 863.271362,459.788239 
	C811.415100,544.273071 759.536133,628.743958 707.782104,713.291382 
	C706.242188,715.807129 705.285583,719.119507 705.274048,722.065186 
	C705.106873,764.722839 705.148315,807.381226 705.057861,850.499268 
z"/>
<path fill="#E70113" opacity="1.000000" stroke="none" 
	d="
M356.999939,416.168335 
	C324.835907,416.168304 293.171661,416.110016 261.508240,416.249969 
	C257.975067,416.265625 255.893250,415.367493 253.948914,412.234467 
	C233.246689,378.875916 212.360184,345.631714 191.529907,312.352600 
	C190.655273,310.955261 189.835693,309.523499 188.682861,307.592590 
	C443.605865,307.592590 698.081482,307.592590 953.236084,307.592590 
	C952.461548,309.044434 951.785950,310.445068 950.993652,311.776245 
	C931.004883,345.364197 910.959778,378.918793 891.083557,412.573151 
	C889.377441,415.461884 887.503723,416.219177 884.344727,416.231873 
	C823.871277,416.474854 763.398315,416.823792 702.925354,417.176483 
	C693.767639,417.229889 684.606995,417.595795 675.456055,417.408356 
	C673.048096,417.359009 670.217041,416.339874 668.348206,414.821167 
	C636.941345,389.298370 605.657104,363.624695 574.340149,337.991272 
	C573.450623,337.263123 572.500488,336.609039 571.440430,335.817169 
	C546.386536,359.170563 521.116699,382.122345 496.639191,405.890167 
	C488.779877,413.521606 481.001740,416.650177 469.983826,416.440735 
	C432.501038,415.728210 394.996307,416.168304 356.999939,416.168335 
z"/>
<path fill="#E70113" opacity="1.000000" stroke="none" 
	d="
M383.928467,215.078430 
	C392.231995,236.985947 400.431000,258.519653 408.929077,280.838898 
	C406.356903,280.838898 404.606964,280.838898 402.857056,280.838898 
	C327.533295,280.838379 252.209457,280.802582 176.885941,280.938995 
	C173.024780,280.945984 170.956512,279.724060 168.980316,276.528900 
	C153.929489,252.194092 138.693344,227.973907 123.517845,203.716202 
	C122.658508,202.342560 121.825012,200.952774 120.528923,198.833908 
	C122.705292,198.833908 124.113029,198.833908 125.520760,198.833908 
	C208.010284,198.833786 290.499817,198.854935 372.989227,198.759308 
	C376.453247,198.755295 378.404724,199.482452 379.398773,203.078552 
	C380.498657,207.057602 382.317932,210.837814 383.928467,215.078430 
z"/>
<path fill="#E70113" opacity="1.000000" stroke="none" 
	d="
M850.000000,280.838379 
	C812.076172,280.838348 774.652405,280.838348 736.419617,280.838348 
	C740.397217,271.310547 744.094116,262.475922 747.774658,253.634445 
	C754.861694,236.609375 761.987793,219.600204 768.969971,202.532181 
	C770.046509,199.900665 771.306702,198.753647 774.369873,198.757339 
	C854.684692,198.854141 934.999512,198.834961 1015.314392,198.841690 
	C1015.975403,198.841751 1016.636475,198.924072 1017.810181,199.002045 
	C1017.064026,200.492874 1016.511169,201.794540 1015.794983,202.999100 
	C1001.091919,227.727798 986.320618,252.416168 971.720215,277.205292 
	C970.045532,280.048676 968.187683,280.922058 964.973328,280.912384 
	C926.815857,280.797485 888.657837,280.838379 850.000000,280.838379 
z"/>
<path fill="#E70213" opacity="1.000000" stroke="none" 
	d="
M648.806335,216.193298 
	C668.636719,236.799973 688.217407,257.156250 706.923340,276.603149 
	C617.087280,276.603149 525.226868,276.603149 432.081604,276.603149 
	C478.703857,230.648254 524.622192,185.387253 571.031067,139.642670 
	C596.903442,165.106094 622.730042,190.524475 648.806335,216.193298 
z"/>
<path fill="#E70516" opacity="1.000000" stroke="none" 
	d="
M182.999969,121.847435 
	C147.187698,121.847435 111.875229,121.795013 76.563515,121.934418 
	C73.292419,121.947334 71.527367,120.932129 69.858391,118.193703 
	C62.417885,105.985466 54.737637,93.923409 47.159142,81.799072 
	C46.656281,80.994583 46.279087,80.111542 45.425587,78.453102 
	C47.806587,78.453102 49.554688,78.453094 51.302788,78.453102 
	C143.081360,78.453316 234.859970,78.479195 326.638397,78.364594 
	C330.511902,78.359756 332.512939,79.246170 333.877655,83.116501 
	C337.962646,94.701530 342.528229,106.116898 346.881439,117.607887 
	C347.336761,118.809898 347.627167,120.074387 348.153748,121.847443 
	C292.981781,121.847443 238.240875,121.847443 182.999969,121.847435 
z"/>
<path fill="#E70516" opacity="1.000000" stroke="none" 
	d="
M814.217834,89.148567 
	C816.250244,79.921806 821.727478,78.175514 830.477600,78.216591 
	C914.744812,78.612236 999.014526,78.455368 1083.283569,78.456589 
	C1085.079468,78.456612 1086.875366,78.456589 1089.281250,78.456589 
	C1088.677734,79.956009 1088.402954,81.007904 1087.870117,81.906822 
	C1080.581665,94.202721 1073.353516,106.536812 1065.824463,118.684296 
	C1064.855225,120.248077 1062.282471,121.714973 1060.450073,121.718010 
	C974.182922,121.861053 887.915344,121.837173 801.647888,121.826820 
	C801.318787,121.826782 800.989746,121.747177 799.803711,121.594208 
	C804.620605,110.750671 809.341736,100.122581 814.217834,89.148567 
z"/>
<path fill="#E70012" opacity="1.000000" stroke="none" 
	d="
M226.000046,132.836761 
	C266.993683,132.835922 307.487518,132.886780 347.980652,132.744629 
	C351.553986,132.732086 353.098022,133.807983 354.310272,137.152481 
	C358.945221,149.940002 363.941864,162.596405 369.070587,175.999832 
	C367.200073,175.999832 365.809387,175.999832 364.418671,175.999832 
	C279.765289,175.999817 195.111908,175.977875 110.458664,176.082596 
	C107.189293,176.086639 105.447540,175.087189 103.768173,172.328323 
	C95.911476,159.421265 87.800987,146.668701 79.139885,132.836761 
	C128.499603,132.836761 176.999817,132.836761 226.000046,132.836761 
z"/>
<path fill="#E70012" opacity="1.000000" stroke="none" 
	d="
M964.000000,132.836761 
	C995.151917,132.836761 1025.803833,132.836761 1056.936157,132.836761 
	C1056.425415,134.129974 1056.163696,135.183212 1055.633301,136.076935 
	C1048.333496,148.374298 1041.074097,160.697311 1033.568970,172.868622 
	C1032.657959,174.346008 1030.375000,175.868546 1028.725342,175.871338 
	C945.917114,176.011398 863.108582,175.988144 780.300110,175.975082 
	C779.973022,175.975021 779.645935,175.865906 778.735352,175.703934 
	C780.563599,171.378525 782.325806,167.157883 784.128784,162.954773 
	C787.797485,154.402908 791.646423,145.923569 795.091736,137.283035 
	C796.465332,133.838165 798.278625,132.726456 802.048584,132.736710 
	C855.865417,132.883087 909.682800,132.836700 964.000000,132.836761 
z"/>
<path fill="#E70517" opacity="1.000000" stroke="none" 
	d="
M135.999817,67.550560 
	C104.676155,67.550179 73.852188,67.485008 43.029285,67.636032 
	C39.391968,67.653854 37.338875,66.535759 35.547783,63.391983 
	C31.938961,57.057686 27.868523,50.986382 23.647589,44.263557 
	C25.313093,44.081726 26.501080,43.838684 27.689110,43.838463 
	C123.325714,43.820744 218.962341,43.836426 314.598877,43.757454 
	C317.717499,43.754879 319.279907,44.523045 320.304047,47.672184 
	C322.398071,54.111271 325.049286,60.369156 327.795746,67.550652 
	C263.582489,67.550652 200.041153,67.550652 135.999817,67.550560 
z"/>
<path fill="#E70617" opacity="1.000000" stroke="none" 
	d="
M1017.000000,43.823982 
	C1047.814209,43.828533 1078.128540,43.832588 1108.442749,43.844315 
	C1108.769653,43.844440 1109.096558,43.944920 1110.363281,44.152760 
	C1105.753662,51.860748 1101.444336,59.370903 1096.721191,66.611244 
	C1096.070312,67.609039 1093.368652,67.511116 1091.616089,67.512886 
	C1046.477783,67.558556 1001.339417,67.550598 956.201111,67.550774 
	C912.894958,67.550934 869.588806,67.549789 826.282654,67.549210 
	C824.488892,67.549187 822.695129,67.549202 819.997009,67.549202 
	C824.304443,59.680855 828.092651,52.380615 832.349182,45.364479 
	C833.048889,44.211178 835.805359,43.887638 837.612305,43.884945 
	C888.413696,43.809120 939.215088,43.824001 990.016541,43.823997 
	C998.844360,43.823997 1007.672180,43.823997 1017.000000,43.823982 
z"/>
<path fill="#E70517" opacity="1.000000" stroke="none" 
	d="
M841.568115,713.589722 
	C853.620850,682.585815 882.887085,664.671265 915.591736,668.047363 
	C944.721313,671.054382 970.729370,696.139343 976.070190,726.379395 
	C982.748230,764.190735 961.907959,800.195251 927.168945,810.863281 
	C887.622375,823.007629 845.705444,797.037415 837.995850,755.642822 
	C835.347046,741.420959 836.328491,727.515686 841.568115,713.589722 
M896.484375,682.775330 
	C864.253845,689.084106 843.958862,723.133179 852.686401,756.255615 
	C860.866699,787.301331 890.954834,805.752625 920.736572,797.986816 
	C945.313904,791.578125 962.446228,768.869690 963.278259,741.599365 
	C964.390198,705.155151 932.402100,676.518799 896.484375,682.775330 
z"/>
<path fill="#FFFDFD" opacity="1.000000" stroke="none" 
	d="
M896.907349,682.668457 
	C932.402100,676.518799 964.390198,705.155151 963.278259,741.599365 
	C962.446228,768.869690 945.313904,791.578125 920.736572,797.986816 
	C890.954834,805.752625 860.866699,787.301331 852.686401,756.255615 
	C843.958862,723.133179 864.253845,689.084106 896.907349,682.668457 
M913.631653,759.876404 
	C917.065796,765.177917 920.442322,770.518494 923.980042,775.749878 
	C924.737915,776.870544 926.041077,778.320251 927.159424,778.380249 
	C932.364807,778.659485 937.593567,778.503906 943.754089,778.503906 
	C935.537292,766.641541 930.869446,753.741394 919.582642,745.442566 
	C922.158386,744.511230 924.416016,743.885620 926.507080,742.904846 
	C934.391296,739.206848 938.392578,731.276855 937.288391,721.817627 
	C936.174377,712.274414 931.159180,705.081665 922.935120,704.373047 
	C908.116394,703.096130 893.192139,703.043762 878.298584,702.479431 
	C878.298584,728.431458 878.298584,753.299866 878.298584,778.186584 
	C883.332581,778.186584 888.059509,778.186584 893.216919,778.186584 
	C893.216919,767.594055 893.216919,757.348145 893.216919,747.506042 
	C904.030701,744.984680 908.772156,751.890747 913.631653,759.876404 
z"/>
<path fill="#E70415" opacity="1.000000" stroke="none" 
	d="
M913.418457,759.584106 
	C908.772156,751.890747 904.030701,744.984680 893.216919,747.506042 
	C893.216919,757.348145 893.216919,767.594055 893.216919,778.186584 
	C888.059509,778.186584 883.332581,778.186584 878.298584,778.186584 
	C878.298584,753.299866 878.298584,728.431458 878.298584,702.479431 
	C893.192139,703.043762 908.116394,703.096130 922.935120,704.373047 
	C931.159180,705.081665 936.174377,712.274414 937.288391,721.817627 
	C938.392578,731.276855 934.391296,739.206848 926.507080,742.904846 
	C924.416016,743.885620 922.158386,744.511230 919.582642,745.442566 
	C930.869446,753.741394 935.537292,766.641541 943.754089,778.503906 
	C937.593567,778.503906 932.364807,778.659485 927.159424,778.380249 
	C926.041077,778.320251 924.737915,776.870544 923.980042,775.749878 
	C920.442322,770.518494 917.065796,765.177917 913.418457,759.584106 
M892.998169,724.516541 
	C892.998169,727.803406 892.998169,731.090271 892.998169,734.263611 
	C900.554932,734.263611 907.668518,734.613831 914.727478,734.144043 
	C919.673462,733.814941 922.177307,730.201294 922.132446,725.185181 
	C922.090881,720.536987 919.489502,716.720337 914.956421,716.425293 
	C907.741577,715.955688 900.473694,716.299866 892.998230,716.299866 
	C892.998230,718.923279 892.998230,721.232361 892.998169,724.516541 
z"/>
<path fill="#FEFBFB" opacity="1.000000" stroke="none" 
	d="
M892.998169,724.028931 
	C892.998230,721.232361 892.998230,718.923279 892.998230,716.299866 
	C900.473694,716.299866 907.741577,715.955688 914.956421,716.425293 
	C919.489502,716.720337 922.090881,720.536987 922.132446,725.185181 
	C922.177307,730.201294 919.673462,733.814941 914.727478,734.144043 
	C907.668518,734.613831 900.554932,734.263611 892.998169,734.263611 
	C892.998169,731.090271 892.998169,727.803406 892.998169,724.028931 
z"/>
</svg>