<svg width="4912" height="860" viewBox="0 0 4912 860" fill="none" xmlns="http://www.w3.org/2000/svg"><rect width="4912" height="860" fill="white"/><path d="M1547.8 298.2C1552.07 298.2 1555.4 296.47 1557.8 293L1564.6 283C1565.93 281.4 1567.53 279.13 1569.4 276.2C1571.53 273.27 1573.13 271.13 1574.2 269.8C1575.53 268.47 1576.73 267.8 1577.8 267.8C1579.67 267.8 1585.27 271.67 1594.6 279.4C1604.2 287.13 1611.13 293.53 1615.4 298.6C1616.47 299.93 1617 301.4 1617 303C1617 304.87 1616.2 306.47 1614.6 307.8C1613.27 308.87 1610.87 309.4 1607.4 309.4H1538.6C1535.93 309.4 1533.8 310.2 1532.2 311.8C1530.87 313.13 1530.2 315.13 1530.2 317.8V449C1530.2 451.67 1530.87 453.8 1532.2 455.4C1533.8 456.73 1535.93 457.4 1538.6 457.4H1560.2C1564.47 457.4 1567.8 455.67 1570.2 452.2L1577.8 441.4C1579.4 439.27 1581.13 436.73 1583 433.8C1585.13 430.87 1586.87 428.73 1588.2 427.4C1589.53 425.8 1590.73 425 1591.8 425C1593.93 425 1599.93 429.27 1609.8 437.8C1619.93 446.07 1627.13 452.87 1631.4 458.2C1632.73 460.07 1633.4 461.53 1633.4 462.6C1633.4 464.47 1632.6 465.93 1631 467C1628.87 468.33 1626.2 469 1623 469H1441C1424.73 469.27 1407.13 470.73 1388.2 473.4H1385.8C1382.07 473.4 1379.4 471.67 1377.8 468.2L1376.2 465C1375.4 463.4 1375 461.93 1375 460.6C1375 458.73 1375.67 457.4 1377 456.6C1378.33 455.53 1380.2 455.13 1382.6 455.4C1391.93 456.2 1405.8 456.87 1424.2 457.4H1478.2C1480.87 457.4 1482.87 456.73 1484.2 455.4C1485.8 453.8 1486.6 451.67 1486.6 449V317.8C1486.6 315.13 1485.8 313.13 1484.2 311.8C1482.87 310.2 1480.87 309.4 1478.2 309.4H1463C1450.47 309.93 1438.73 311.27 1427.8 313.4C1427 313.67 1426.07 313.8 1425 313.8C1421.53 313.8 1418.87 312.07 1417 308.6L1415.4 305.8C1414.6 304.2 1414.2 302.73 1414.2 301.4C1414.2 299.8 1414.87 298.47 1416.2 297.4C1417.8 296.33 1419.8 295.93 1422.2 296.2C1431 297 1444.33 297.67 1462.2 298.2H1478.2C1480.87 298.2 1482.87 297.53 1484.2 296.2C1485.8 294.6 1486.6 292.47 1486.6 289.8V170.2C1486.6 167.53 1485.8 165.53 1484.2 164.2C1482.87 162.6 1480.87 161.8 1478.2 161.8H1460.6C1448.07 162.07 1434.73 163.53 1420.6 166.2H1418.2C1414.73 166.2 1412.07 164.47 1410.2 161L1408.6 158.2C1407.8 156.6 1407.4 155 1407.4 153.4C1407.4 151.8 1408.07 150.6 1409.4 149.8C1410.73 148.73 1412.6 148.33 1415 148.6C1424.07 149.4 1437.8 150.07 1456.2 150.6H1552.6C1556.87 150.6 1560.2 148.87 1562.6 145.4L1570.2 135.4C1571.53 133.8 1573.27 131.53 1575.4 128.6C1577.53 125.67 1579.27 123.53 1580.6 122.2C1581.93 120.87 1583.13 120.2 1584.2 120.2C1586.33 120.2 1592.33 124.07 1602.2 131.8C1612.07 139.53 1619 145.93 1623 151C1624.6 152.6 1625.4 154.2 1625.4 155.8C1625.4 157.13 1624.6 158.47 1623 159.8C1620.87 161.13 1618.2 161.8 1615 161.8H1538.6C1535.93 161.8 1533.8 162.6 1532.2 164.2C1530.87 165.53 1530.2 167.53 1530.2 170.2V289.8C1530.2 292.47 1530.87 294.6 1532.2 296.2C1533.8 297.53 1535.93 298.2 1538.6 298.2H1547.8ZM1350.6 165C1354.87 165 1358.33 163.4 1361 160.2L1366.2 153.4C1367.27 152.07 1368.73 150.33 1370.6 148.2C1372.47 145.8 1373.93 144.07 1375 143C1376.33 141.93 1377.53 141.4 1378.6 141.4C1380.47 141.4 1385.93 144.87 1395 151.8C1404.33 158.73 1411.27 164.73 1415.8 169.8C1416.87 171.13 1417.4 172.6 1417.4 174.2C1417.4 176.33 1416.33 178.2 1414.2 179.8C1412.87 180.87 1411.4 181.53 1409.8 181.8C1405.27 183.93 1403 187.13 1403 191.4V321.8C1403.53 350.87 1404.47 380.2 1405.8 409.8V411.8C1405.8 415.53 1404.47 418.2 1401.8 419.8C1397.27 422.73 1391.8 425.4 1385.4 427.8C1379 429.93 1373 431 1367.4 431C1364.2 431 1361.93 429.93 1360.6 427.8C1359.8 426.47 1359.4 425.13 1359.4 423.8C1359.4 422.73 1359.67 420.87 1360.2 418.2L1361 411.8V410.2C1361 407.53 1360.2 405.53 1358.6 404.2C1357.27 402.6 1355.27 401.8 1352.6 401.8H1330.6C1327.93 401.8 1325.8 402.6 1324.2 404.2C1322.87 405.53 1322.2 407.53 1322.2 410.2V414.2L1323.4 431.4C1323.4 433.8 1323.27 435.8 1323 437.4C1322.73 438.73 1321.93 440.07 1320.6 441.4C1317.67 444.33 1313.27 447 1307.4 449.4C1301.8 451.53 1295.4 452.6 1288.2 452.6C1284.47 452.6 1281.53 451.8 1279.4 450.2C1277.27 448.6 1276.2 446.73 1276.2 444.6C1277.27 428.87 1278.2 413.67 1279 399C1279.8 384.07 1280.33 364.6 1280.6 340.6V226.6C1280.6 200.47 1279.4 176.87 1277 155.8V154.2C1277 150.2 1278.73 148.2 1282.2 148.2C1282.73 148.2 1284.07 148.47 1286.2 149L1322.2 163C1326.2 164.33 1329.53 165 1332.2 165H1350.6ZM1352.6 275.4C1355.27 275.4 1357.27 274.73 1358.6 273.4C1360.2 271.8 1361 269.67 1361 267V185C1361 182.33 1360.2 180.33 1358.6 179C1357.27 177.4 1355.27 176.6 1352.6 176.6H1330.6C1327.93 176.6 1325.8 177.4 1324.2 179C1322.87 180.33 1322.2 182.33 1322.2 185V267C1322.2 269.67 1322.87 271.8 1324.2 273.4C1325.8 274.73 1327.93 275.4 1330.6 275.4H1352.6ZM1330.6 286.6C1327.93 286.6 1325.8 287.4 1324.2 289C1322.87 290.33 1322.2 292.33 1322.2 295V381.8C1322.2 384.47 1322.87 386.6 1324.2 388.2C1325.8 389.53 1327.93 390.2 1330.6 390.2H1352.6C1355.27 390.2 1357.27 389.53 1358.6 388.2C1360.2 386.6 1361 384.47 1361 381.8V295C1361 292.33 1360.2 290.33 1358.6 289C1357.27 287.4 1355.27 286.6 1352.6 286.6H1330.6Z" fill="#040404"/><path d="M1790.2 194.2C1790.73 194.2 1792.33 192.73 1795 189.8L1801.4 183C1802.73 181.4 1804.87 179.13 1807.8 176.2C1810.73 173 1813 171.4 1814.6 171.4C1816.47 171.4 1820.87 174.87 1827.8 181.8C1835 188.47 1840.47 194.33 1844.2 199.4C1845.27 201.53 1845.8 203 1845.8 203.8C1845.8 206.2 1844.6 207.8 1842.2 208.6L1838.6 209.8C1833.8 210.6 1830.73 213 1829.4 217C1820.33 238.07 1808.87 258.47 1795 278.2C1793.67 280.33 1793 282.07 1793 283.4C1793 286.33 1794.6 288.2 1797.8 289L1799 289.4C1800.07 289.93 1801.4 290.2 1803 290.2C1806.47 290.2 1808.73 288.47 1809.8 285C1814.6 273.53 1818.2 262.73 1820.6 252.6C1821.93 248.6 1823.93 246.6 1826.6 246.6C1828.2 246.6 1829.93 247.13 1831.8 248.2C1842.47 254.6 1849.8 259.53 1853.8 263C1858.07 266.2 1860.2 268.6 1860.2 270.2C1860.2 271.27 1858.87 272.07 1856.2 272.6L1854.2 273C1850.47 273.8 1847.13 275.27 1844.2 277.4C1837.8 282.73 1831.53 287.8 1825.4 292.6C1822.73 294.2 1821.4 296.07 1821.4 298.2C1821.4 299.8 1822.6 301.67 1825 303.8C1831.4 308.87 1836.07 314.2 1839 319.8C1841.93 325.13 1843.4 330.33 1843.4 335.4C1843.4 341.27 1841.67 346.07 1838.2 349.8C1835 353.53 1830.87 355.4 1825.8 355.4C1823.13 355.4 1819.93 354.6 1816.2 353C1814.6 351.93 1813.4 350.73 1812.6 349.4C1811.8 348.07 1811 346.2 1810.2 343.8C1808.6 335.8 1804.87 326.33 1799 315.4C1797.4 312.2 1795.53 310.6 1793.4 310.6C1792.07 310.6 1790.87 311.27 1789.8 312.6C1789 313.93 1788.6 315.8 1788.6 318.2V383C1789.13 412.07 1790.07 441.4 1791.4 471V473C1791.4 476.47 1790.2 479.27 1787.8 481.4C1784.07 484.33 1779.4 486.87 1773.8 489C1768.2 491.13 1761.93 492.2 1755 492.2C1751.53 492.2 1748.73 491.4 1746.6 489.8C1744.73 488.2 1743.8 486.33 1743.8 484.2C1744.87 469.27 1745.67 454.6 1746.2 440.2C1747 425.53 1747.53 407.13 1747.8 385V345C1747.8 342.87 1747.27 341.13 1746.2 339.8C1745.4 338.47 1744.33 337.8 1743 337.8C1741.67 337.8 1739.8 338.73 1737.4 340.6C1729.4 347.27 1719.67 354.47 1708.2 362.2C1703.67 365.4 1700.73 366.07 1699.4 364.2C1699.13 363.93 1699 363.4 1699 362.6C1699 361 1700.33 358.87 1703 356.2C1720.07 337.27 1735.8 315.4 1750.2 290.6C1764.6 265.53 1775.93 240.47 1784.2 215.4C1784.73 213.8 1785 212.6 1785 211.8C1785 209.93 1784.33 208.47 1783 207.4C1781.67 206.33 1779.8 205.8 1777.4 205.8H1760.6C1748.07 206.07 1734.47 207.53 1719.8 210.2H1717.4C1713.67 210.2 1711 208.47 1709.4 205L1707.8 202.2C1707 200.6 1706.6 199 1706.6 197.4C1706.6 193.93 1709.27 192.47 1714.6 193L1733.4 194.2H1739C1744.6 194.2 1747.4 191.4 1747.4 185.8C1746.87 162.6 1745.67 142.33 1743.8 125V124.2C1743.8 121.27 1744.6 119.27 1746.2 118.2C1748.07 116.87 1750.47 116.6 1753.4 117.4C1783.53 124.07 1798.6 129.27 1798.6 133C1798.6 133.8 1797.67 134.87 1795.8 136.2L1794.6 137C1790.87 139.4 1789 142.73 1789 147V185.8C1789 191.4 1789.4 194.2 1790.2 194.2ZM1877.4 125.4C1877.67 123.27 1878.33 121.53 1879.4 120.2C1880.47 118.87 1881.8 118.2 1883.4 118.2C1884.47 118.2 1885.8 118.6 1887.4 119.4L1910.6 130.2C1926.87 136.07 1935 140.33 1935 143C1935 144.33 1933.53 145.4 1930.6 146.2L1928.6 146.6C1925.13 147.67 1922.33 150.07 1920.2 153.8C1901.53 186.33 1877.8 212.33 1849 231.8C1845 234.47 1842.33 235.13 1841 233.8C1840.47 233.27 1840.2 232.73 1840.2 232.2C1840.2 230.33 1841.13 228.07 1843 225.4C1847.27 217.4 1851.67 208.6 1856.2 199C1860.73 188.6 1865 176.6 1869 163C1873 149.13 1875.8 136.6 1877.4 125.4ZM1963 129.4C1959.53 124.6 1958.47 121.8 1959.8 121C1960.07 120.73 1960.87 120.6 1962.2 120.6C1963.53 120.6 1965.4 121 1967.8 121.8C1995.27 131.93 2015.4 144.33 2028.2 159C2041.27 173.67 2047.8 187.67 2047.8 201C2047.8 208.47 2045.8 214.73 2041.8 219.8C2038.07 224.6 2033.13 227 2027 227C2023 227 2018.87 225.8 2014.6 223.4C2011.13 221.8 2009 218.87 2008.2 214.6C2004.73 201.27 1998.87 187.13 1990.6 172.2C1982.33 157 1973.13 142.73 1963 129.4ZM2023.4 364.2C2022.6 363.13 2021.8 363.93 2021 366.6C2020.47 369 2020.2 372.07 2020.2 375.8V398.2C2021 428.6 2021.8 451.13 2022.6 465.8V467.8C2022.6 471.27 2021.4 474.07 2019 476.2C2014.73 479.4 2009.4 482.33 2003 485C1996.6 487.93 1990.6 489.4 1985 489.4C1981.27 489.4 1978.73 488.33 1977.4 486.2C1976.6 485.13 1976.2 483.8 1976.2 482.2C1976.2 481.13 1976.47 479.27 1977 476.6L1977.8 469.8V468.2C1977.8 465.53 1977 463.4 1975.4 461.8C1974.07 460.47 1972.07 459.8 1969.4 459.8H1915.4C1912.73 459.8 1910.6 460.47 1909 461.8C1907.67 463.4 1907 465.53 1907 468.2V479.4C1907 480.47 1905.4 482.07 1902.2 484.2C1899.27 486.33 1895.13 488.2 1889.8 489.8C1884.47 491.4 1878.47 492.2 1871.8 492.2C1868.33 492.2 1865.53 491.4 1863.4 489.8C1861.53 488.2 1860.6 486.33 1860.6 484.2C1862.47 458.07 1863.67 429.27 1864.2 397.8V363.4C1864.2 358.6 1862.6 356.2 1859.4 356.2C1857.8 356.2 1855.93 357 1853.8 358.6C1843.67 366.6 1835.93 372.2 1830.6 375.4C1826.33 378.6 1823.67 379.4 1822.6 377.8L1822.2 376.6C1822.2 375 1823.53 372.87 1826.2 370.2C1838.2 356.33 1849.8 340.2 1861 321.8C1872.47 303.13 1882.47 284.07 1891 264.6C1901.13 240.07 1907 217.93 1908.6 198.2C1908.87 195.27 1909.8 193.27 1911.4 192.2C1913.27 190.87 1915.53 190.6 1918.2 191.4L1967 203.8C1969.13 204.33 1970.87 205.27 1972.2 206.6C1973.53 207.67 1974.2 208.73 1974.2 209.8C1974.2 211.13 1973.4 212.07 1971.8 212.6C1971.27 212.87 1970.33 213.53 1969 214.6C1967.93 215.67 1967 217 1966.2 218.6C1965.4 220.2 1965.4 221.8 1966.2 223.4C1976.07 244.47 1989.8 263.67 2007.4 281C2025 298.07 2043.8 311.8 2063.8 322.2C2068.07 324.6 2070.2 326.47 2070.2 327.8C2069.93 328.6 2069.27 329.4 2068.2 330.2C2067.13 331 2065.67 331.8 2063.8 332.6C2057.67 335.8 2052.33 340.33 2047.8 346.2C2043.27 351.8 2039.8 358.07 2037.4 365C2036.07 368.73 2034.2 370.6 2031.8 370.6C2030.2 370.6 2028.6 369.67 2027 367.8L2023.4 364.2ZM1960.2 234.2C1959.4 230.2 1958.07 228.2 1956.2 228.2C1954.6 228.2 1953 229.93 1951.4 233.4C1938.87 263.53 1920.07 292.6 1895 320.6C1893.4 322.47 1892.6 324.2 1892.6 325.8C1892.6 328.73 1894.33 330.73 1897.8 331.8L1907.4 335.4C1911.4 336.73 1914.73 337.4 1917.4 337.4H1968.6C1972.87 337.4 1976.33 335.93 1979 333L1987.4 324.2C1989.27 322.33 1990.2 320.2 1990.2 317.8C1990.2 316.2 1989.8 314.6 1989 313C1976.73 289.8 1967.13 263.53 1960.2 234.2ZM1915.4 349C1912.73 349 1910.6 349.8 1909 351.4C1907.67 352.73 1907 354.73 1907 357.4V440.2C1907 442.87 1907.67 445 1909 446.6C1910.6 447.93 1912.73 448.6 1915.4 448.6H1969.4C1972.07 448.6 1974.07 447.93 1975.4 446.6C1977 445 1977.8 442.87 1977.8 440.2V357.4C1977.8 354.73 1977 352.73 1975.4 351.4C1974.07 349.8 1972.07 349 1969.4 349H1915.4Z" fill="#040404"/><path d="M2226.6 143C2230.87 143 2234.33 141.27 2237 137.8L2241.8 131.4C2242.87 130.07 2244.2 128.33 2245.8 126.2C2247.67 124.07 2249.13 122.47 2250.2 121.4C2251.53 120.33 2252.73 119.8 2253.8 119.8C2255.67 119.8 2260.87 123.27 2269.4 130.2C2278.2 136.87 2284.87 142.73 2289.4 147.8C2290.73 149.67 2291.4 151.13 2291.4 152.2C2291.4 154.33 2290.2 156.07 2287.8 157.4L2286.2 158.6C2283.8 159.67 2281.93 160.87 2280.6 162.2C2279.53 163.53 2279 165.4 2279 167.8V437.8C2279 448.73 2277.93 457.53 2275.8 464.2C2273.93 470.87 2269.93 476.33 2263.8 480.6C2257.67 484.87 2248.6 487.93 2236.6 489.8H2235C2230.47 489.8 2227.8 487.27 2227 482.2C2225.67 471 2223.53 463.27 2220.6 459C2217.4 453.4 2211.13 449.13 2201.8 446.2C2196.73 445.13 2194.2 443.67 2194.2 441.8C2194.2 440.2 2197.13 439.4 2203 439.4C2214.73 440.47 2223.53 441 2229.4 441C2232.33 441 2234.33 440.47 2235.4 439.4C2236.47 438.07 2237 435.93 2237 433V350.6C2237 347.93 2236.2 345.93 2234.6 344.6C2233.27 343 2231.27 342.2 2228.6 342.2H2207.8C2202.47 342.2 2199.53 344.87 2199 350.2C2192.87 407 2175.53 452.6 2147 487C2144.33 490.2 2142.2 491.8 2140.6 491.8C2139 491.8 2138.2 490.73 2138.2 488.6C2138.2 487 2138.6 485 2139.4 482.6C2146.6 461.8 2151.8 439.27 2155 415C2158.47 390.47 2160.47 367 2161 344.6C2161.8 322.2 2162.2 293.8 2162.2 259.4V191.8C2162.2 169.67 2161.27 150.33 2159.4 133.8V132.2C2159.4 127.93 2161.27 125.8 2165 125.8C2165.8 125.8 2167 126.07 2168.6 126.6L2205 141C2209 142.33 2212.33 143 2215 143H2226.6ZM2387.8 143.4C2392.07 143.4 2395.53 141.8 2398.2 138.6L2403 132.6C2403.8 131.53 2405.13 129.93 2407 127.8C2408.87 125.67 2410.33 124.07 2411.4 123C2412.73 121.93 2413.93 121.4 2415 121.4C2416.87 121.4 2421.67 124.6 2429.4 131C2437.13 137.13 2442.87 142.47 2446.6 147C2447.93 148.87 2448.6 150.47 2448.6 151.8C2448.6 153.67 2447.4 155.27 2445 156.6C2444.47 156.6 2443.13 157.67 2441 159.8C2438.87 161.93 2437.8 164.07 2437.8 166.2V221C2437.8 223.13 2438.2 224.6 2439 225.4C2439.8 225.93 2441.4 226.2 2443.8 226.2H2465C2466.33 225.93 2467.27 225.67 2467.8 225.4C2468.6 224.87 2469.53 223.67 2470.6 221.8C2472.2 219.13 2474.33 213 2477 203.4C2479.93 193.53 2481.8 187.4 2482.6 185C2483.13 182.87 2483.8 181.13 2484.6 179.8C2485.67 178.47 2486.47 177.8 2487 177.8C2487.53 177.8 2488.07 178.6 2488.6 180.2C2489.13 181.8 2489.4 183.8 2489.4 186.2L2490.2 216.6C2490.2 220.33 2492.07 223.8 2495.8 227C2497.93 228.6 2499.27 230.47 2499.8 232.6C2500.6 234.73 2501 237.4 2501 240.6C2501 257.93 2484.07 266.6 2450.2 266.6H2430.2C2420.6 266.6 2413.53 265.53 2409 263.4C2404.73 261.27 2401.8 257.93 2400.2 253.4C2398.87 248.6 2398.2 241.4 2398.2 231.8V163.4C2398.2 160.73 2397.4 158.73 2395.8 157.4C2394.47 155.8 2392.47 155 2389.8 155H2365.8C2363.13 155 2361 155.8 2359.4 157.4C2358.07 158.73 2357.4 160.73 2357.4 163.4V178.6C2357.4 199.4 2353 219.27 2344.2 238.2C2335.4 257.13 2318.2 273 2292.6 285.8C2290.47 286.87 2288.6 287.53 2287 287.8C2285.4 287.8 2284.33 287.4 2283.8 286.6L2283.4 285.8C2283.4 285 2284.73 282.6 2287.4 278.6C2299.13 264.73 2306.87 249.67 2310.6 233.4C2314.33 217.13 2316.2 198.87 2316.2 178.6V151.8C2316.2 144.07 2316.07 138.33 2315.8 134.6V133.8C2315.8 129.27 2317.53 127 2321 127C2322.6 127 2323.93 127.27 2325 127.8L2359 141.4C2361.93 142.73 2365.27 143.4 2369 143.4H2387.8ZM2228.6 235.8C2231.27 235.8 2233.27 235.13 2234.6 233.8C2236.2 232.2 2237 230.07 2237 227.4V163C2237 160.33 2236.2 158.33 2234.6 157C2233.27 155.4 2231.27 154.6 2228.6 154.6H2211.4C2208.73 154.6 2206.6 155.4 2205 157C2203.67 158.33 2203 160.33 2203 163V227.4C2203 230.07 2203.67 232.2 2205 233.8C2206.6 235.13 2208.73 235.8 2211.4 235.8H2228.6ZM2211.4 247C2208.73 247 2206.6 247.8 2205 249.4C2203.67 250.73 2203 252.73 2203 255.4V259.4C2203 286.6 2202.6 307.53 2201.8 322.2V323.4C2201.8 328.47 2204.47 331 2209.8 331H2228.6C2231.27 331 2233.27 330.33 2234.6 329C2236.2 327.4 2237 325.27 2237 322.6V255.4C2237 252.73 2236.2 250.73 2234.6 249.4C2233.27 247.8 2231.27 247 2228.6 247H2211.4ZM2415.8 403.4C2414.2 405.27 2413.4 407.13 2413.4 409C2413.4 411.13 2414.87 413.27 2417.8 415.4C2441.27 428.73 2467.93 438.87 2497.8 445.8C2502.87 447.4 2505.4 448.87 2505.4 450.2C2505.13 451.27 2504.33 452.2 2503 453C2501.93 453.53 2500.33 454.07 2498.2 454.6C2484.87 459.67 2475 469.67 2468.6 484.6C2466.73 488.6 2464.47 490.6 2461.8 490.6C2460.73 490.6 2459.4 490.2 2457.8 489.4C2429.53 476.6 2406.07 461 2387.4 442.6C2385.53 440.73 2383.53 439.8 2381.4 439.8C2379.8 439.8 2377.93 440.6 2375.8 442.2C2348.87 463.53 2315.4 480.2 2275.4 492.2C2272.73 493 2270.6 493.4 2269 493.4C2267.67 493.67 2266.87 493.27 2266.6 492.2V491.4C2266.6 489.8 2268.6 487.93 2272.6 485.8C2306.73 468.47 2335.4 446.07 2358.6 418.6C2360.2 416.47 2361 414.33 2361 412.2C2361 410.87 2360.33 409.13 2359 407C2343.27 381.4 2331.8 350.87 2324.6 315.4C2323.53 310.33 2320.47 307.8 2315.4 307.8H2311.8C2307.53 308.33 2304.07 309 2301.4 309.8C2299.8 310.6 2298.33 311 2297 311C2294.07 311 2291.8 309.4 2290.2 306.2L2289 304.2C2288.2 302.6 2287.8 301 2287.8 299.4C2287.8 297.8 2288.47 296.6 2289.8 295.8C2291.13 294.73 2293 294.33 2295.4 294.6C2304.47 295.4 2318.2 296.07 2336.6 296.6H2408.2C2412.2 296.6 2415.53 295.13 2418.2 292.2L2425.8 284.2C2426.87 283.13 2428.47 281.4 2430.6 279C2433 276.33 2434.87 274.47 2436.2 273.4C2437.8 272.07 2439.13 271.4 2440.2 271.4C2442.07 271.4 2447.53 275.53 2456.6 283.8C2465.93 291.8 2472.73 298.47 2477 303.8C2478.07 305.13 2478.6 306.73 2478.6 308.6C2478.6 310.47 2477.67 311.93 2475.8 313C2472.6 314.07 2471 314.6 2471 314.6C2466.2 315.4 2463.13 317.93 2461.8 322.2C2450.33 352.33 2435 379.4 2415.8 403.4ZM2413.4 317.4C2413.67 316.6 2413.8 315.53 2413.8 314.2C2413.8 309.93 2411.27 307.8 2406.2 307.8H2339.8C2334.73 307.8 2332.2 309.93 2332.2 314.2L2333 317.4C2342.6 342.73 2356.33 364.33 2374.2 382.2C2376.07 384.07 2377.93 385 2379.8 385C2382.2 385 2384.2 383.53 2385.8 380.6C2396.2 363.27 2405.4 342.2 2413.4 317.4Z" fill="#040404"/><path d="M2672.6 248.6C2668.87 250.73 2667 253.93 2667 258.2V382.6C2667.53 411.67 2668.47 441 2669.8 470.6V472.6C2669.8 476.33 2668.47 479 2665.8 480.6C2661.8 483.8 2656.47 486.6 2649.8 489C2643.13 491.4 2636.47 492.6 2629.8 492.6C2626.07 492.6 2623 491.8 2620.6 490.2C2618.47 488.6 2617.4 486.73 2617.4 484.6C2618.47 468.87 2619.4 453.67 2620.2 439C2621 424.07 2621.53 404.6 2621.8 380.6V295.8C2621.8 293.67 2621.4 291.93 2620.6 290.6C2619.8 289.27 2618.73 288.6 2617.4 288.6C2615.53 288.6 2613.53 289.8 2611.4 292.2C2601.27 303.67 2591.27 313.53 2581.4 321.8C2578.47 324.2 2576.2 325.4 2574.6 325.4C2573.27 325.4 2572.6 324.73 2572.6 323.4C2572.6 322.07 2573.53 319.8 2575.4 316.6C2595.67 282.2 2613 243.4 2627.4 200.2C2631.13 188.2 2634.47 175 2637.4 160.6C2640.6 146.2 2642.73 133.53 2643.8 122.6C2644.6 118.07 2646.87 115.8 2650.6 115.8C2651.13 115.8 2652.47 116.07 2654.6 116.6C2689.53 127.8 2707 135.13 2707 138.6C2707 139.67 2705.93 140.6 2703.8 141.4L2701.8 142.2C2697.8 143.8 2695.27 146.47 2694.2 150.2C2684.33 176.6 2673.53 200.2 2661.8 221C2661 222.6 2660.6 224.2 2660.6 225.8C2660.6 228.47 2661.93 230.73 2664.6 232.6C2672.33 238.47 2676.2 242.6 2676.2 245C2676.2 246.33 2675 247.53 2672.6 248.6ZM2848.6 153C2844.07 153.8 2841.8 155.8 2841.8 159C2841.8 160.07 2842.2 161.4 2843 163C2852.07 179.8 2864.73 195.13 2881 209C2897.27 222.87 2915.4 233.93 2935.4 242.2C2939.93 244.33 2942.2 246.07 2942.2 247.4C2941.93 248.47 2940.87 249.53 2939 250.6C2937.4 251.67 2936.33 252.33 2935.8 252.6C2928.6 256.07 2922.2 261.13 2916.6 267.8C2911.27 274.2 2907.13 281.27 2904.2 289C2903.93 290.07 2903.67 291.53 2903.4 293.4C2903.4 295.27 2902.87 296.87 2901.8 298.2C2898.6 300.33 2895.93 301.67 2893.8 302.2C2890.87 304.87 2889.27 307.8 2889 311C2887.67 363 2885 401.27 2881 425.8C2877 450.07 2870.47 466.33 2861.4 474.6C2851 483.93 2837.53 489.13 2821 490.2H2820.2C2815.4 490.2 2812.73 487.4 2812.2 481.8C2811.67 471.67 2809.53 464.33 2805.8 459.8C2801 454.47 2792.6 450.07 2780.6 446.6C2775.8 445 2773.4 443.4 2773.4 441.8C2773.4 440.47 2775.4 439.8 2779.4 439.8C2780.47 439.8 2788.6 440.2 2803.8 441L2817.4 441.8C2822.73 441.8 2826.6 440.47 2829 437.8C2833.8 433.27 2837.4 420.2 2839.8 398.6C2842.47 377 2844.47 345.53 2845.8 304.2V303.4C2845.8 300.73 2845 298.73 2843.4 297.4C2842.07 296.07 2840.2 295.4 2837.8 295.4H2807C2801.67 295.4 2798.6 298.07 2797.8 303.4C2791.93 345.8 2779.93 382.47 2761.8 413.4C2743.67 444.07 2716.87 469 2681.4 488.2C2676.6 491.13 2673.67 491.8 2672.6 490.2L2672.2 489.4C2672.2 488.07 2673.8 485.8 2677 482.6C2700.47 460.2 2717.67 434.2 2728.6 404.6C2739.8 374.73 2746.87 341.27 2749.8 304.2V303.4C2749.8 298.07 2747 295.4 2741.4 295.4H2735.4C2728.2 295.93 2722.33 297 2717.8 298.6C2717 298.87 2715.8 299 2714.2 299C2710.73 299 2708.33 297.4 2707 294.2L2705 290.6C2703.4 287.67 2701.27 286.2 2698.6 286.2C2696.73 286.2 2695.13 286.73 2693.8 287.8L2682.2 294.2C2677.93 296.6 2675.27 297.13 2674.2 295.8C2673.93 295.53 2673.8 295.13 2673.8 294.6C2673.8 292.73 2675 290.47 2677.4 287.8C2688.07 274.73 2697.93 259.67 2707 242.6C2712.33 232.73 2717.4 220.87 2722.2 207C2727 192.87 2730.47 180.2 2732.6 169C2733.13 164.47 2735.27 162.2 2739 162.2C2740.6 162.2 2741.8 162.47 2742.6 163L2768.2 173.8C2785.53 178.87 2794.2 182.87 2794.2 185.8C2794.2 187.4 2792.73 188.6 2789.8 189.4L2787.4 190.2C2783.93 191.27 2781.13 193.67 2779 197.4C2762.73 227 2741.4 252.2 2715 273C2712.33 275.13 2711 277 2711 278.6C2711 280.73 2713.27 282.07 2717.8 282.6C2725.8 283.13 2737.53 283.67 2753 284.2H2836.6C2840.6 284.2 2844.07 282.73 2847 279.8L2859.8 265C2861.4 262.6 2863.4 261.4 2865.8 261.4C2867.67 261.4 2869.53 262.33 2871.4 264.2L2889.4 281.8C2875 266.07 2862.73 247.93 2852.6 227.4C2842.73 206.6 2835.4 184.2 2830.6 160.2C2829.53 155.13 2826.47 152.6 2821.4 152.6H2806.2C2794.47 152.87 2783.27 154.2 2772.6 156.6C2771.8 156.87 2770.87 157 2769.8 157C2766.33 157 2763.67 155.27 2761.8 151.8L2760.6 149C2759.8 147.4 2759.4 145.93 2759.4 144.6C2759.4 140.87 2761.93 139.27 2767 139.8C2773.93 140.33 2784.6 140.87 2799 141.4H2812.6C2817.4 141.4 2820.87 139.53 2823 135.8L2829 125.4C2830.6 122.47 2832.87 121 2835.8 121C2837.67 121 2839.27 121.53 2840.6 122.6L2863 137.8C2865.67 139.67 2867.27 141.53 2867.8 143.4C2868.6 145.27 2868.33 146.6 2867 147.4C2862.47 149.8 2856.33 151.67 2848.6 153Z" fill="#040404"/><path d="M3255.8 252.2C3260.33 252.2 3263.8 250.47 3266.2 247L3271.8 239.4C3272.6 238.33 3273.93 236.6 3275.8 234.2C3277.93 231.53 3279.67 229.67 3281 228.6C3282.33 227.27 3283.53 226.6 3284.6 226.6C3286.73 226.6 3292.87 230.6 3303 238.6C3313.4 246.33 3321.13 252.87 3326.2 258.2C3327.53 259.53 3328.2 261 3328.2 262.6C3328.2 264.47 3327.13 266.2 3325 267.8C3323.67 268.87 3321.67 269.8 3319 270.6C3314.2 272.47 3311.8 275.67 3311.8 280.2V436.2C3311.8 447.4 3310.6 456.47 3308.2 463.4C3305.8 470.33 3301 476.07 3293.8 480.6C3286.6 485.4 3275.8 488.87 3261.4 491H3260.2C3255.4 491 3252.6 488.47 3251.8 483.4C3250.2 471.67 3247.27 463.13 3243 457.8C3237.4 451.13 3228.47 446.2 3216.2 443C3211.13 441.93 3208.6 440.47 3208.6 438.6C3208.6 438.07 3209.4 437.53 3211 437C3212.6 436.47 3214.73 436.33 3217.4 436.6C3238.2 437.93 3251.8 438.6 3258.2 438.6C3261.4 438.6 3263.53 438.07 3264.6 437C3265.67 435.67 3266.2 433.53 3266.2 430.6V397C3266.2 394.33 3265.4 392.33 3263.8 391C3262.47 389.4 3260.47 388.6 3257.8 388.6H3149.8C3147.13 388.6 3145 389.4 3143.4 391C3142.07 392.33 3141.4 394.33 3141.4 397V418.6C3142.2 441.53 3142.87 458.73 3143.4 470.2V472.6C3143.4 475.53 3142.33 478.07 3140.2 480.2C3136.47 483.4 3131.53 486.07 3125.4 488.2C3119.53 490.6 3112.6 491.8 3104.6 491.8C3100.6 491.8 3097.4 491 3095 489.4C3092.87 487.8 3091.8 485.93 3091.8 483.8C3092.87 468.07 3093.8 452.87 3094.6 438.2C3095.4 423.27 3095.93 403.8 3096.2 379.8V308.6C3096.2 303.8 3094.6 301.4 3091.4 301.4C3089.8 301.4 3087.93 302.2 3085.8 303.8C3065.53 321.93 3043.53 337.27 3019.8 349.8C3017.67 350.6 3015.8 351.27 3014.2 351.8C3012.87 352.07 3011.93 351.8 3011.4 351L3011 350.2C3011 348.33 3012.73 346.07 3016.2 343.4C3037 325.53 3055.8 304.87 3072.6 281.4C3089.67 257.67 3104.47 232.33 3117 205.4C3117.8 203.8 3118.2 202.33 3118.2 201C3118.2 197.27 3115.67 195.4 3110.6 195.4H3082.6C3066.33 195.67 3048.73 197.13 3029.8 199.8H3027.4C3023.67 199.8 3021 198.07 3019.4 194.6L3017.8 191.4C3017 189.8 3016.6 188.2 3016.6 186.6C3016.6 185 3017.27 183.8 3018.6 183C3019.93 181.93 3021.8 181.53 3024.2 181.8C3033.27 182.6 3047 183.27 3065.4 183.8H3119C3123.8 183.8 3127.13 181.67 3129 177.4C3136.2 157.67 3141 139.13 3143.4 121.8C3144.2 117.27 3146.33 115 3149.8 115C3150.33 115 3151.67 115.27 3153.8 115.8C3188.73 127 3206.2 134.33 3206.2 137.8C3206.2 138.87 3205.13 139.8 3203 140.6L3201.4 141C3197.67 142.6 3195 145.27 3193.4 149C3190.73 156.2 3187.13 164.47 3182.6 173.8C3181.8 175.4 3181.4 176.87 3181.4 178.2C3181.4 181.93 3183.8 183.8 3188.6 183.8H3287.4C3291.67 183.8 3295 182.07 3297.4 178.6L3306.2 166.6C3307.8 164.73 3309.8 162.2 3312.2 159C3314.6 155.53 3316.47 153 3317.8 151.4C3319.4 149.8 3320.73 149 3321.8 149C3323.4 149 3328.07 152.07 3335.8 158.2C3343.8 164.07 3351.27 170.2 3358.2 176.6C3365.13 183 3368.6 187.13 3368.6 189C3368.33 193.27 3364.87 195.4 3358.2 195.4H3178.2C3173.67 195.4 3170.33 197.4 3168.2 201.4C3159.4 216.6 3151 229.8 3143 241C3139.8 245.8 3139.4 248.87 3141.8 250.2C3145.27 251.53 3148.6 252.2 3151.8 252.2H3255.8ZM3257.8 314.2C3260.47 314.2 3262.47 313.53 3263.8 312.2C3265.4 310.6 3266.2 308.47 3266.2 305.8V272.2C3266.2 269.53 3265.4 267.53 3263.8 266.2C3262.47 264.6 3260.47 263.8 3257.8 263.8H3149.8C3147.13 263.8 3145 264.6 3143.4 266.2C3142.07 267.53 3141.4 269.53 3141.4 272.2V305.8C3141.4 308.47 3142.07 310.6 3143.4 312.2C3145 313.53 3147.13 314.2 3149.8 314.2H3257.8ZM3149.8 325.8C3147.13 325.8 3145 326.6 3143.4 328.2C3142.07 329.53 3141.4 331.53 3141.4 334.2V368.6C3141.4 371.27 3142.07 373.4 3143.4 375C3145 376.33 3147.13 377 3149.8 377H3257.8C3260.47 377 3262.47 376.33 3263.8 375C3265.4 373.4 3266.2 371.27 3266.2 368.6V334.2C3266.2 331.53 3265.4 329.53 3263.8 328.2C3262.47 326.6 3260.47 325.8 3257.8 325.8H3149.8Z" fill="#040404"/><path d="M3720.6 145.4C3724.87 145.4 3728.33 143.8 3731 140.6L3736.6 133.4C3737.67 132.07 3739.13 130.33 3741 128.2C3742.87 125.8 3744.33 124.07 3745.4 123C3746.73 121.93 3747.93 121.4 3749 121.4C3751.13 121.4 3756.87 125.13 3766.2 132.6C3775.8 139.8 3782.87 145.93 3787.4 151C3788.73 152.33 3789.4 153.8 3789.4 155.4C3789.4 157.53 3788.33 159.27 3786.2 160.6L3782.2 162.6C3777.67 164.73 3775.4 167.93 3775.4 172.2V295C3775.4 299.27 3773.8 302.33 3770.6 304.2L3769 305C3765.53 306.33 3763.8 308.07 3763.8 310.2C3763.8 312.33 3765.27 314.47 3768.2 316.6C3787.93 329.93 3797.8 338.2 3797.8 341.4C3797.8 342.47 3796.33 343.27 3793.4 343.8H3790.6C3787.4 343.8 3783.93 344.87 3780.2 347C3761.8 357.93 3743 366.47 3723.8 372.6C3720.07 373.93 3718.2 375.93 3718.2 378.6C3718.2 379.93 3719 381.67 3720.6 383.8C3740.07 408.33 3768.6 428.47 3806.2 444.2C3811 446.33 3813.27 447.93 3813 449C3812.73 450.07 3811.93 451 3810.6 451.8C3809.53 452.33 3807.93 452.87 3805.8 453.4C3792.73 457.93 3782.73 467.67 3775.8 482.6C3774.2 486.07 3772.2 487.8 3769.8 487.8C3768.47 487.8 3766.73 487.13 3764.6 485.8C3741.67 468.2 3723.93 448.87 3711.4 427.8C3709.53 424.6 3707.4 423 3705 423C3703.93 423 3702.33 423.53 3700.2 424.6C3669.8 442.73 3633.93 461.4 3592.6 480.6C3588.87 482.2 3586.6 483.93 3585.8 485.8C3585.27 486.87 3584.73 487.67 3584.2 488.2C3583.13 489.8 3581.67 490.6 3579.8 490.6C3577.4 490.6 3575.27 488.87 3573.4 485.4L3557 450.2C3556.47 449.13 3556.2 447.8 3556.2 446.2C3556.2 442.47 3558.47 440.33 3563 439.8C3570.2 439 3579.67 437.53 3591.4 435.4C3596.47 434.6 3599 431.67 3599 426.6V174.6C3599 169.27 3596.73 166.87 3592.2 167.4H3591C3586.73 168.2 3583.53 170.33 3581.4 173.8C3563.8 203.93 3547.53 228.6 3532.6 247.8C3531 249.67 3530.2 251.4 3530.2 253C3530.2 255.13 3531.53 257.27 3534.2 259.4C3551 271.67 3563.53 285.8 3571.8 301.8C3580.33 317.53 3584.6 333.27 3584.6 349C3584.6 367.13 3580.87 381.27 3573.4 391.4C3566.2 401.53 3553.93 407.4 3536.6 409H3535.8C3530.73 409 3527.93 406.33 3527.4 401C3526.87 388.2 3525.4 379.53 3523 375C3521.13 372.07 3517.67 369.53 3512.6 367.4C3507.8 365.8 3505.4 364.2 3505.4 362.6C3505.4 361.8 3506.07 361.13 3507.4 360.6C3509 360.07 3511.13 359.8 3513.8 359.8H3527.8C3531.8 359.8 3534.73 359.13 3536.6 357.8C3542.2 354.33 3545 347.13 3545 336.2C3545 308.73 3537 283.67 3521 261C3519.13 258.87 3518.2 256.47 3518.2 253.8C3518.2 252.73 3518.47 251.4 3519 249.8C3525.4 228.73 3531.93 200.47 3538.6 165L3539 162.6C3539 160.47 3538.2 158.87 3536.6 157.8C3535.27 156.47 3533.4 155.8 3531 155.8H3513C3510.33 155.8 3508.2 156.6 3506.6 158.2C3505.27 159.53 3504.6 161.53 3504.6 164.2V382.2C3505.13 411.27 3506.07 440.6 3507.4 470.2V472.2C3507.4 475.67 3506.2 478.47 3503.8 480.6C3500.6 483.8 3496.07 486.6 3490.2 489C3484.33 491.4 3477.67 492.6 3470.2 492.6C3466.47 492.6 3463.53 491.8 3461.4 490.2C3459.27 488.6 3458.2 486.73 3458.2 484.6C3459.27 468.87 3460.2 453.67 3461 439C3461.8 424.07 3462.33 404.6 3462.6 380.6V205.4C3462.6 179.27 3461.4 155.67 3459 134.6V133C3459 129 3460.73 127 3464.2 127C3464.73 127 3466.07 127.27 3468.2 127.8L3505 142.2C3509 143.53 3512.33 144.2 3515 144.2H3531.4C3535.4 144.2 3538.87 142.73 3541.8 139.8L3554.2 127.4C3556.07 125.53 3558.07 124.6 3560.2 124.6C3562.6 124.6 3564.6 125.53 3566.2 127.4L3588.6 149.4C3591 151.8 3593.13 153 3595 153C3597.67 153 3599 151.13 3599 147.4L3598.2 135.4V134.2C3598.2 129.67 3599.8 127.4 3603 127.4C3604.33 127.4 3605.8 127.8 3607.4 128.6L3643 143.4C3645.93 144.73 3649.27 145.4 3653 145.4H3720.6ZM3722.6 211C3725.27 211 3727.27 210.33 3728.6 209C3730.2 207.4 3731 205.27 3731 202.6V165.4C3731 162.73 3730.2 160.73 3728.6 159.4C3727.27 157.8 3725.27 157 3722.6 157H3651C3648.33 157 3646.2 157.8 3644.6 159.4C3643.27 160.73 3642.6 162.73 3642.6 165.4V202.6C3642.6 205.27 3643.27 207.4 3644.6 209C3646.2 210.33 3648.33 211 3651 211H3722.6ZM3642.6 274.6C3642.6 277.27 3643.27 279.4 3644.6 281C3646.2 282.33 3648.33 283 3651 283H3722.6C3725.27 283 3727.27 282.33 3728.6 281C3730.2 279.4 3731 277.27 3731 274.6V230.6C3731 227.93 3730.2 225.93 3728.6 224.6C3727.27 223 3725.27 222.2 3722.6 222.2H3651C3648.33 222.2 3646.2 223 3644.6 224.6C3643.27 225.93 3642.6 227.93 3642.6 230.6V274.6ZM3695 417C3699.27 416.2 3701.4 414.07 3701.4 410.6C3701.4 409 3701.13 407.67 3700.6 406.6C3688.6 379.93 3679.8 345.27 3674.2 302.6C3673.67 297.27 3670.73 294.6 3665.4 294.6H3651C3648.33 294.6 3646.2 295.4 3644.6 297C3643.27 298.33 3642.6 300.33 3642.6 303V417.4C3642.6 420.33 3643.4 422.47 3645 423.8C3646.6 424.87 3648.73 425.27 3651.4 425L3695 417ZM3744.6 321.8C3747 318.6 3748.2 315.93 3748.2 313.8C3748.2 312.2 3747.53 311.4 3746.2 311.4L3738.2 311.8C3736.07 311.8 3734.33 311.13 3733 309.8C3731.67 308.2 3731 306.07 3731 303.4V303C3731 300.33 3730.2 298.33 3728.6 297C3727.27 295.4 3725.27 294.6 3722.6 294.6H3689.4C3686.47 294.6 3684.33 295.53 3683 297.4C3681.67 299 3681.27 301.13 3681.8 303.8C3687.67 325.93 3694.87 344.47 3703.4 359.4C3705.53 362.6 3707.67 364.2 3709.8 364.2C3711.67 364.2 3713.13 363.4 3714.2 361.8C3726.73 347.4 3736.87 334.07 3744.6 321.8Z" fill="#040404"/><path d="M4123 150.2C4118.2 151 4115.8 153.13 4115.8 156.6C4115.8 157.67 4116.2 158.87 4117 160.2C4128.2 183.4 4144.73 204.87 4166.6 224.6C4188.47 244.07 4213.27 259.4 4241 270.6C4246.33 272.47 4248.73 274.07 4248.2 275.4C4247.93 276.47 4245.8 278.07 4241.8 280.2C4235.67 283.13 4229.93 287.4 4224.6 293C4219.53 298.33 4215.4 304.2 4212.2 310.6C4210.6 314.07 4208.6 315.8 4206.2 315.8C4204.87 315.8 4203.27 315.13 4201.4 313.8C4177.67 295.4 4157.53 272.73 4141 245.8C4124.73 218.6 4112.6 188.6 4104.6 155.8C4103.53 151 4100.47 148.6 4095.4 148.6H4071.8C4056.33 148.87 4039.8 150.33 4022.2 153H4019.8C4016.07 153 4013.4 151.27 4011.8 147.8L4010.2 145C4009.4 143.4 4009 141.8 4009 140.2C4009 138.6 4009.67 137.4 4011 136.6C4012.33 135.53 4014.2 135.13 4016.6 135.4C4025.67 136.2 4039.4 136.87 4057.8 137.4H4086.2C4090.47 137.4 4093.8 135.53 4096.2 131.8L4102.6 121.4C4104.2 118.47 4106.33 117 4109 117C4110.6 117 4112.33 117.67 4114.2 119L4137.4 135.4C4139.8 137.27 4141.4 139.13 4142.2 141C4143 142.87 4142.6 144.2 4141 145C4135.93 147.67 4129.93 149.4 4123 150.2ZM3959.4 160.2C3960.2 155.67 3962.2 153.4 3965.4 153.4C3966.73 153.4 3968.2 153.8 3969.8 154.6L3996.2 167C4014.33 173.4 4023.4 178.07 4023.4 181C4023.4 182.33 4021.93 183.4 4019 184.2L4017 184.6C4013.27 185.67 4010.47 188.2 4008.6 192.2C3979.27 247.93 3940.33 290.87 3891.8 321C3887.53 323.13 3884.87 323.67 3883.8 322.6C3883.53 322.33 3883.4 321.93 3883.4 321.4C3883.4 320.07 3884.6 317.8 3887 314.6C3903.8 293.53 3919.67 267.13 3934.6 235.4C3939.67 225.27 3944.47 213.13 3949 199C3953.8 184.6 3957.27 171.67 3959.4 160.2ZM4001.4 410.2C4000.07 412.33 3999.4 413.93 3999.4 415C3999.4 416.6 4000.07 417.93 4001.4 419C4002.73 419.8 4004.6 420.07 4007 419.8C4025.67 418.47 4045.13 417.13 4065.4 415.8C4085.93 414.47 4106.87 413 4128.2 411.4C4133 410.87 4135.4 409 4135.4 405.8C4135.4 404.73 4134.87 403.13 4133.8 401C4123.13 381.8 4111 363.8 4097.4 347C4094.73 343.53 4093.4 341 4093.4 339.4C4093.4 338.6 4094.07 338.2 4095.4 338.2C4097.27 338.2 4099.4 338.73 4101.8 339.8C4127.4 351 4148.33 363.67 4164.6 377.8C4181.13 391.67 4193 405.53 4200.2 419.4C4207.67 433.27 4211.4 446.07 4211.4 457.8C4211.4 467.67 4209.13 475.67 4204.6 481.8C4200.07 487.93 4194.2 491 4187 491C4181.4 491 4175.8 489.13 4170.2 485.4C4167 483.27 4165 480.2 4164.2 476.2C4160.73 461 4155.27 445.13 4147.8 428.6C4146.2 424.87 4143.8 423 4140.6 423C4139.8 423 4138.6 423.27 4137 423.8C4096.2 437.67 4033.13 455 3947.8 475.8C3944.07 476.87 3941.4 478.33 3939.8 480.2L3937.4 482.6C3936.33 483.67 3935 484.2 3933.4 484.2C3932.07 484.2 3930.73 483.67 3929.4 482.6C3928.07 481.53 3927.13 480.07 3926.6 478.2L3910.2 434.6C3909.67 433 3909.4 431.8 3909.4 431C3909.4 427 3911.8 424.87 3916.6 424.6C3932.07 424.07 3950.33 423.27 3971.4 422.2C3976.47 421.67 3979.67 419.27 3981 415C3991.13 385.93 4000.33 355.27 4008.6 323C4014.73 298.47 4018.47 275.4 4019.8 253.8C4020.33 249 4022.73 246.6 4027 246.6C4028.33 246.6 4029.4 246.73 4030.2 247C4065.93 256.33 4083.8 262.87 4083.8 266.6C4083.8 267.67 4082.73 268.6 4080.6 269.4L4078.6 270.2C4075.13 272.07 4072.87 274.47 4071.8 277.4C4063.27 297.93 4052.73 319.93 4040.2 343.4C4027.93 366.87 4015 389.13 4001.4 410.2Z" fill="#040404"/><path d="M4600.6 165.4C4600.6 162.73 4599.8 160.73 4598.2 159.4C4596.87 157.8 4594.87 157 4592.2 157H4405C4388.73 157.27 4371.13 158.73 4352.2 161.4H4349.8C4346.07 161.4 4343.4 159.67 4341.8 156.2L4340.2 153C4339.4 151.4 4339 149.8 4339 148.2C4339 146.6 4339.67 145.4 4341 144.6C4342.33 143.53 4344.2 143.13 4346.6 143.4C4355.67 144.2 4369.4 144.87 4387.8 145.4H4590.2C4594.47 145.4 4597.93 143.8 4600.6 140.6L4606.6 132.6C4607.4 131.53 4608.73 129.8 4610.6 127.4C4612.73 124.73 4614.47 122.87 4615.8 121.8C4617.13 120.47 4618.33 119.8 4619.4 119.8C4621.53 119.8 4627.53 123.67 4637.4 131.4C4647.27 139.13 4654.47 145.53 4659 150.6C4660.33 151.93 4661 153.53 4661 155.4C4661 157.53 4659.93 159.27 4657.8 160.6L4653.8 163C4651.4 164.07 4649.53 165.27 4648.2 166.6C4647.13 167.93 4646.6 169.8 4646.6 172.2V435.4C4646.6 446.87 4645.13 456.2 4642.2 463.4C4639.53 470.87 4634.07 477 4625.8 481.8C4617.53 486.6 4605.27 490.07 4589 492.2H4587.8C4583 492.2 4580.2 489.67 4579.4 484.6C4577.27 473.13 4573.27 464.6 4567.4 459C4563.13 455.27 4558.2 452.2 4552.6 449.8C4547 447.13 4539.53 444.87 4530.2 443C4524.87 441.67 4522.2 440.2 4522.2 438.6C4522.2 437 4525.13 436.2 4531 436.2C4563.8 438.6 4583.53 439.8 4590.2 439.8C4594.2 439.8 4596.87 439.13 4598.2 437.8C4599.8 436.2 4600.6 433.67 4600.6 430.2V165.4ZM4393 223C4376.73 223.27 4359.13 224.73 4340.2 227.4H4337.8C4334.07 227.4 4331.4 225.67 4329.8 222.2L4328.2 219C4327.4 217.4 4327 215.8 4327 214.2C4327 212.6 4327.67 211.4 4329 210.6C4330.33 209.53 4332.2 209.13 4334.6 209.4C4343.67 210.2 4357.4 210.87 4375.8 211.4H4501C4505.27 211.4 4508.6 209.67 4511 206.2L4519 195C4520.33 193.13 4522.2 190.6 4524.6 187.4C4527 184.2 4528.87 181.93 4530.2 180.6C4531.53 179 4532.73 178.2 4533.8 178.2C4535.93 178.2 4542.33 182.6 4553 191.4C4563.67 199.93 4571.13 206.87 4575.4 212.2C4576.73 213.53 4577.4 215 4577.4 216.6C4577.4 218.2 4576.87 219.4 4575.8 220.2C4573.93 222.07 4571 223 4567 223H4393ZM4475 274.6C4479.27 274.6 4482.73 273 4485.4 269.8L4491 263C4492.07 261.67 4493.53 259.93 4495.4 257.8C4497.27 255.4 4498.73 253.67 4499.8 252.6C4501.13 251.53 4502.33 251 4503.4 251C4505.53 251 4511.27 254.47 4520.6 261.4C4529.93 268.33 4536.87 274.33 4541.4 279.4C4542.73 281.27 4543.4 282.73 4543.4 283.8C4543.4 285.93 4542.2 287.8 4539.8 289.4C4539.27 289.93 4538.73 290.33 4538.2 290.6C4537.67 290.87 4537.13 291.13 4536.6 291.4C4534.2 292.47 4532.33 293.67 4531 295C4529.93 296.33 4529.4 298.2 4529.4 300.6V332.2C4530.2 363.4 4531 386.33 4531.8 401V403C4531.8 406.73 4530.47 409.4 4527.8 411C4523.53 413.93 4518.07 416.47 4511.4 418.6C4504.73 420.73 4498.6 421.8 4493 421.8C4488.73 421.8 4485.93 420.73 4484.6 418.6C4483.8 417.27 4483.4 415.93 4483.4 414.6C4483.4 413.53 4483.67 411.67 4484.2 409C4484.2 408.47 4484.47 405.53 4485 400.2V397.8C4485 395.13 4484.2 393.13 4482.6 391.8C4481.27 390.2 4479.27 389.4 4476.6 389.4H4410.6C4407.93 389.4 4405.8 390.2 4404.2 391.8C4402.87 393.13 4402.2 395.13 4402.2 397.8V401L4403 416.2V419.4C4403 422.33 4402.2 424.6 4400.6 426.2C4397.13 429.4 4392.07 432.33 4385.4 435C4379 437.4 4372.47 438.6 4365.8 438.6C4362.87 438.6 4360.6 437.8 4359 436.2C4357.4 434.6 4356.6 432.73 4356.6 430.6C4357.93 415.67 4358.87 395.53 4359.4 370.2V335.8C4359.4 309.67 4358.2 286.2 4355.8 265.4V263.8C4355.8 259.53 4357.53 257.4 4361 257.4C4362.6 257.4 4363.93 257.67 4365 258.2L4399.4 272.6C4402.33 273.93 4405.67 274.6 4409.4 274.6H4475ZM4410.6 285.8C4407.93 285.8 4405.8 286.6 4404.2 288.2C4402.87 289.53 4402.2 291.53 4402.2 294.2V369.4C4402.2 372.07 4402.87 374.2 4404.2 375.8C4405.8 377.13 4407.93 377.8 4410.6 377.8H4476.6C4479.27 377.8 4481.27 377.13 4482.6 375.8C4484.2 374.2 4485 372.07 4485 369.4V294.2C4485 291.53 4484.2 289.53 4482.6 288.2C4481.27 286.6 4479.27 285.8 4476.6 285.8H4410.6Z" fill="#040404"/><path d="M1485.4 636.4C1486.33 636.4 1486.8 637.27 1486.8 639C1486.8 640.6 1486.33 641.4 1485.4 641.4H1482.8C1479.2 641.4 1475.47 643 1471.6 646.2C1467.73 649.4 1464.73 653.8 1462.6 659.4C1461.8 661.8 1453.93 687.73 1439 737.2L1425.4 782.2C1424.87 784.6 1423.33 785.8 1420.8 785.8H1416.8C1414.4 785.8 1412.87 784.6 1412.2 782.2L1407 763.8C1397.67 730.07 1390.4 704.33 1385.2 686.6C1384.67 684.6 1383.8 683.6 1382.6 683.6C1381.53 683.6 1380.67 684.6 1380 686.6L1351.4 782.2C1350.87 784.6 1349.33 785.8 1346.8 785.8H1342.8C1340.27 785.8 1338.67 784.6 1338 782.2C1333.33 764.6 1326.8 740.47 1318.4 709.8C1310 679 1304.93 661.13 1303.2 656.2C1301.07 650.47 1298.6 646.6 1295.8 644.6C1293 642.47 1289.8 641.4 1286.2 641.4H1283.4C1282.47 641.4 1282 640.6 1282 639C1282 637.27 1282.47 636.4 1283.4 636.4H1342C1342.67 636.4 1343.07 636.6 1343.2 637C1343.47 637.4 1343.6 638.07 1343.6 639C1343.6 640.6 1343.07 641.4 1342 641.4H1339.4C1335.27 641.4 1331.87 642.33 1329.2 644.2C1326.67 645.93 1325.4 648.53 1325.4 652C1325.4 653.33 1325.6 654.8 1326 656.4L1349.4 743.8C1350.07 745.8 1350.93 746.8 1352 746.8C1353.33 746.8 1354.27 745.8 1354.8 743.8L1377.6 666.2C1377.87 665.53 1378 664.6 1378 663.4C1378 662.07 1377.87 661.13 1377.6 660.6L1376.2 656.2C1374.2 650.47 1371.73 646.6 1368.8 644.6C1365.87 642.47 1362.27 641.4 1358 641.4H1355C1354.07 641.4 1353.6 640.6 1353.6 639C1353.6 637.27 1354.07 636.4 1355 636.4H1413.4C1414.07 636.4 1414.47 636.6 1414.6 637C1414.87 637.4 1415 638.07 1415 639C1415 640.6 1414.47 641.4 1413.4 641.4H1410.8C1407.47 641.4 1404.6 642.33 1402.2 644.2C1399.8 646.07 1398.6 648.67 1398.6 652C1398.6 653.2 1398.8 654.6 1399.2 656.2C1400.8 662.73 1408.93 692.2 1423.6 744.6C1424.27 746.6 1425.2 747.6 1426.4 747.6C1427.6 747.6 1428.47 746.6 1429 744.6L1454.2 659.4C1454.6 657.8 1454.8 656.27 1454.8 654.8C1454.8 650.8 1453.33 647.6 1450.4 645.2C1447.47 642.67 1444.07 641.4 1440.2 641.4H1437.6C1436.67 641.4 1436.2 640.6 1436.2 639C1436.2 637.27 1436.67 636.4 1437.6 636.4H1485.4Z" fill="#858585"/><path d="M1565.74 785.8C1554.81 785.8 1544.08 782.87 1533.54 777C1523.01 771.13 1514.28 762.47 1507.34 751C1500.54 739.53 1497.14 725.87 1497.14 710C1497.14 694.13 1500.54 680.53 1507.34 669.2C1514.28 657.73 1523.01 649.07 1533.54 643.2C1544.08 637.33 1554.81 634.4 1565.74 634.4C1576.54 634.4 1587.21 637.33 1597.74 643.2C1608.41 649.07 1617.14 657.73 1623.94 669.2C1630.74 680.53 1634.14 694.13 1634.14 710C1634.14 725.87 1630.74 739.53 1623.94 751C1617.14 762.47 1608.41 771.13 1597.74 777C1587.21 782.87 1576.54 785.8 1565.74 785.8ZM1565.74 779.4C1573.61 779.4 1580.81 776.8 1587.34 771.6C1594.01 766.4 1599.28 758.6 1603.14 748.2C1607.14 737.8 1609.14 725.07 1609.14 710C1609.14 695.07 1607.14 682.4 1603.14 672C1599.28 661.6 1594.01 653.87 1587.34 648.8C1580.81 643.6 1573.61 641 1565.74 641C1557.88 641 1550.61 643.6 1543.94 648.8C1537.41 653.87 1532.14 661.6 1528.14 672C1524.28 682.4 1522.34 695.07 1522.34 710C1522.34 725.07 1524.28 737.8 1528.14 748.2C1532.14 758.6 1537.41 766.4 1543.94 771.6C1550.61 776.8 1557.88 779.4 1565.74 779.4Z" fill="#858585"/><path d="M1650.95 783C1650.15 783 1649.75 782.13 1649.75 780.4C1649.75 778.8 1650.15 778 1650.95 778H1653.55C1657.82 778 1661.68 776.4 1665.15 773.2C1668.75 770 1670.55 765.8 1670.55 760.6V657.6C1670.55 655.87 1670.28 654.2 1669.75 652.6C1668.42 649.13 1666.48 646.53 1663.95 644.8C1661.42 643.07 1658.02 642 1653.75 641.6L1650.95 641.4C1650.02 641.27 1649.55 640.47 1649.55 639C1649.55 637.27 1650.02 636.4 1650.95 636.4H1687.15C1689.28 636.4 1690.95 637.27 1692.15 639L1761.75 738.6C1762.68 739.93 1763.62 740.6 1764.55 740.6C1766.15 740.6 1766.95 739.4 1766.95 737V658.8C1766.95 653.6 1765.08 649.4 1761.35 646.2C1757.75 643 1753.88 641.4 1749.75 641.4H1747.15C1746.22 641.4 1745.75 640.6 1745.75 639C1745.75 637.27 1746.22 636.4 1747.15 636.4H1794.35C1795.02 636.4 1795.42 636.6 1795.55 637C1795.82 637.4 1795.95 638.07 1795.95 639C1795.95 640.6 1795.42 641.4 1794.35 641.4H1791.95C1787.55 641.4 1783.62 643 1780.15 646.2C1776.68 649.27 1774.95 653.47 1774.95 658.8V778.8C1774.95 780.13 1774.55 781.2 1773.75 782C1773.08 782.67 1772.08 783 1770.75 783H1767.95C1765.82 783 1764.15 782.13 1762.95 780.4L1683.75 666.2C1682.82 664.87 1681.88 664.2 1680.95 664.2C1679.35 664.2 1678.55 665.4 1678.55 667.8V760.6C1678.55 765.93 1680.35 770.2 1683.95 773.4C1687.68 776.47 1691.68 778 1695.95 778H1698.35C1699.28 778 1699.75 778.8 1699.75 780.4C1699.75 782.13 1699.28 783 1698.35 783H1650.95Z" fill="#858585"/><path d="M1846.26 783C1845.33 783 1844.86 782.13 1844.86 780.4C1844.86 778.67 1845.33 777.8 1846.26 777.8H1848.86C1854.19 777.8 1858.33 776.73 1861.26 774.6C1864.19 772.47 1865.73 768.6 1865.86 763V737C1865.86 735.27 1865.46 733.53 1864.66 731.8C1859.33 720.87 1852.79 707.6 1845.06 692C1837.33 676.4 1831.33 664.47 1827.06 656.2C1823.86 650.33 1820.86 646.4 1818.06 644.4C1815.26 642.4 1812.39 641.4 1809.46 641.4H1806.66C1805.73 641.4 1805.26 640.6 1805.26 639C1805.26 637.27 1805.73 636.4 1806.66 636.4H1866.06C1866.99 636.4 1867.46 637.27 1867.46 639C1867.46 640.6 1866.99 641.4 1866.06 641.4H1863.26C1858.99 641.4 1855.59 642.13 1853.06 643.6C1850.53 645.07 1849.26 647.27 1849.26 650.2C1849.26 651.8 1849.79 653.87 1850.86 656.4C1853.66 662.53 1858.06 671.67 1864.06 683.8C1870.06 695.8 1875.66 706.93 1880.86 717.2C1881.66 718.8 1882.59 719.6 1883.66 719.6C1884.73 719.6 1885.66 718.8 1886.46 717.2L1915.06 659.6C1916.26 657.2 1916.86 655 1916.86 653C1916.86 649.4 1915.19 646.6 1911.86 644.6C1908.66 642.47 1905.39 641.4 1902.06 641.4H1899.26C1898.33 641.4 1897.86 640.6 1897.86 639C1897.86 637.27 1898.33 636.4 1899.26 636.4H1950.06C1950.73 636.4 1951.13 636.6 1951.26 637C1951.53 637.4 1951.66 638.07 1951.66 639C1951.66 640.6 1951.13 641.4 1950.06 641.4H1947.66C1943.93 641.4 1939.93 643 1935.66 646.2C1931.39 649.27 1927.59 653.67 1924.26 659.4C1921.46 664.33 1909.99 686.6 1889.86 726.2C1889.06 727.93 1888.66 729.67 1888.66 731.4V763C1888.66 768.73 1890.19 772.67 1893.26 774.8C1896.33 776.8 1900.46 777.8 1905.66 777.8H1908.26C1909.33 777.8 1909.86 778.67 1909.86 780.4C1909.86 782.13 1909.33 783 1908.26 783H1846.26Z" fill="#858585"/><path d="M2037.01 785.8C2017.41 785.8 2002.94 781.6 1993.61 773.2C1984.27 764.8 1979.61 752.87 1979.61 737.4V656.2C1979.61 650.47 1978.07 646.6 1975.01 644.6C1972.07 642.47 1967.94 641.4 1962.61 641.4H1960.01C1959.07 641.4 1958.61 640.6 1958.61 639C1958.61 637.27 1959.07 636.4 1960.01 636.4H2021.81C2022.74 636.4 2023.21 637.27 2023.21 639C2023.21 640.6 2022.74 641.4 2021.81 641.4H2019.21C2013.87 641.4 2009.67 642.47 2006.61 644.6C2003.67 646.6 2002.21 650.47 2002.21 656.2V729.2C2002.21 742.8 2004.54 754.33 2009.21 763.8C2014.01 773.27 2023.74 778 2038.41 778C2053.74 778 2064.14 773.2 2069.61 763.6C2075.21 753.87 2078.01 741.47 2078.01 726.4V658.8C2078.01 653.47 2076.21 649.27 2072.61 646.2C2069.01 643 2065.14 641.4 2061.01 641.4H2058.41C2057.47 641.4 2057.01 640.6 2057.01 639C2057.01 637.27 2057.47 636.4 2058.41 636.4H2105.81C2106.47 636.4 2106.87 636.6 2107.01 637C2107.27 637.4 2107.41 638.07 2107.41 639C2107.41 640.6 2106.87 641.4 2105.81 641.4H2103.41C2099.14 641.4 2095.21 643 2091.61 646.2C2088.01 649.27 2086.21 653.47 2086.21 658.8L2085.81 732.2C2085.81 749.13 2081.54 762.33 2073.01 771.8C2064.47 781.13 2052.47 785.8 2037.01 785.8Z" fill="#858585"/><path d="M2250.27 744.6C2251.33 745 2251.87 745.73 2251.87 746.8C2251.87 747.33 2251.53 748.4 2250.87 750C2247.53 758.27 2243.87 768.13 2239.87 779.6C2239.07 781.87 2237.47 783 2235.07 783H2122.67C2121.6 783 2121.07 782.13 2121.07 780.4C2121.07 778.8 2121.6 778 2122.67 778H2125.27C2130.6 778 2134.73 776.93 2137.67 774.8C2140.73 772.67 2142.27 768.73 2142.27 763V656.4C2142.27 650.67 2140.73 646.73 2137.67 644.6C2134.6 642.47 2130.47 641.4 2125.27 641.4H2122.67C2121.6 641.4 2121.07 640.53 2121.07 638.8C2121.07 637.2 2121.6 636.4 2122.67 636.4H2229.87C2232.27 636.4 2233.93 637.4 2234.87 639.4C2242.2 652.47 2246.13 659.73 2246.67 661.2C2246.8 661.47 2246.87 661.8 2246.87 662.2C2246.87 662.87 2246.4 663.4 2245.47 663.8C2245.07 664.07 2244.53 664.2 2243.87 664.2C2243.07 664.2 2242.47 664 2242.07 663.6C2236.33 657.73 2228.93 652.73 2219.87 648.6C2210.8 644.33 2201.4 642.2 2191.67 642.2H2187.47C2182 642.2 2177.8 642.47 2174.87 643C2171.93 643.4 2169.6 644.47 2167.87 646.2C2166.13 647.93 2165.27 650.73 2165.27 654.6V699.4C2165.27 700.73 2165.6 701.8 2166.27 702.6C2167.07 703.27 2168.13 703.6 2169.47 703.6H2181.87C2189.6 703.6 2194.73 703.53 2197.27 703.4C2202.87 703.27 2207.27 701.33 2210.47 697.6C2213.8 693.73 2215.47 689.2 2215.47 684C2215.47 683.47 2215.67 683.13 2216.07 683C2216.47 682.73 2217.07 682.6 2217.87 682.6C2219.6 682.6 2220.47 683.07 2220.47 684V730.4C2220.47 731.33 2219.6 731.8 2217.87 731.8C2217.07 731.8 2216.47 731.73 2216.07 731.6C2215.67 731.33 2215.47 730.93 2215.47 730.4C2215.47 725.2 2213.8 720.67 2210.47 716.8C2207.27 712.93 2202.87 710.93 2197.27 710.8C2194.73 710.67 2189.6 710.6 2181.87 710.6H2169.47C2168.13 710.6 2167.07 711 2166.27 711.8C2165.6 712.47 2165.27 713.47 2165.27 714.8V764.6C2165.27 769.27 2166.6 772.47 2169.27 774.2C2172.07 775.8 2176.53 776.8 2182.67 777.2C2184.27 777.33 2186.67 777.4 2189.87 777.4C2192.8 777.4 2195.13 777.33 2196.87 777.2C2205.13 776.67 2212.4 774.73 2218.67 771.4C2224.93 768.07 2230.13 764.33 2234.27 760.2C2238.4 755.93 2242.67 750.87 2247.07 745C2247.47 744.47 2248.07 744.2 2248.87 744.2C2249.27 744.2 2249.73 744.33 2250.27 744.6Z" fill="#858585"/><path d="M2434.05 636.4C2442.98 636.8 2451.32 638.53 2459.05 641.6C2466.78 644.67 2472.98 649.07 2477.65 654.8C2482.32 660.53 2484.65 667.27 2484.65 675C2484.65 689.13 2479.12 699.2 2468.05 705.2C2457.12 711.2 2444.32 714.53 2429.65 715.2C2426.72 715.33 2422.12 715.4 2415.85 715.4H2410.85C2409.52 715.4 2408.45 715.8 2407.65 716.6C2406.98 717.27 2406.65 718.27 2406.65 719.6V763C2406.65 768.73 2408.12 772.67 2411.05 774.8C2413.98 776.93 2418.18 778 2423.65 778H2426.45C2427.38 778 2427.85 778.8 2427.85 780.4C2427.85 782.13 2427.38 783 2426.45 783H2364.05C2363.12 783 2362.65 782.13 2362.65 780.4C2362.65 778.8 2363.12 778 2364.05 778H2366.85C2372.05 778 2376.18 776.93 2379.25 774.8C2382.32 772.67 2383.85 768.73 2383.85 763V656.4C2383.85 650.8 2382.32 646.93 2379.25 644.8C2376.32 642.53 2372.18 641.4 2366.85 641.4H2364.05C2363.12 641.4 2362.65 640.6 2362.65 639V638.2C2362.78 637.4 2363.12 636.93 2363.65 636.8C2364.32 636.53 2365.25 636.4 2366.45 636.4L2412.05 636.2C2424.85 636.2 2432.18 636.27 2434.05 636.4ZM2421.85 709.6C2435.72 709.33 2445.45 706.07 2451.05 699.8C2456.65 693.53 2459.45 685 2459.45 674.2C2459.45 665.93 2457.32 659.4 2453.05 654.6C2448.78 649.8 2443.85 646.53 2438.25 644.8C2432.78 642.93 2427.78 642 2423.25 642C2418.45 642 2414.45 642.87 2411.25 644.6C2408.18 646.33 2406.65 649.73 2406.65 654.8V705.6C2406.65 706.93 2406.98 708 2407.65 708.8C2408.45 709.47 2409.52 709.8 2410.85 709.8H2412.25C2417.05 709.8 2420.25 709.73 2421.85 709.6Z" fill="#858585"/><path d="M2613.93 779.6C2613.13 781.87 2611.53 783 2609.13 783H2499.33C2498.4 783 2497.93 782.13 2497.93 780.4C2497.93 778.67 2498.4 777.8 2499.33 777.8H2502.13C2507.6 777.8 2511.8 776.8 2514.73 774.8C2517.67 772.67 2519.13 768.73 2519.13 763V656.4C2519.13 650.67 2517.6 646.73 2514.53 644.6C2511.47 642.47 2507.33 641.4 2502.13 641.4H2499.33C2498.4 641.4 2497.93 640.53 2497.93 638.8C2497.93 637.2 2498.4 636.4 2499.33 636.4H2561.73C2562.4 636.4 2562.8 636.6 2562.93 637C2563.2 637.4 2563.33 638.07 2563.33 639C2563.33 640.6 2562.8 641.4 2561.73 641.4H2559.13C2553.8 641.4 2549.6 642.47 2546.53 644.6C2543.6 646.73 2542.13 650.67 2542.13 656.4V764.6C2542.13 769.27 2543.47 772.4 2546.13 774C2548.93 775.6 2553.4 776.6 2559.53 777L2564.13 777.2L2570.93 777C2582.13 776.6 2591.53 773.6 2599.13 768C2606.87 762.4 2613.8 755.4 2619.93 747C2621 745.53 2621.73 744.67 2622.13 744.4C2622.27 744.27 2622.53 744.2 2622.93 744.2C2623.07 744.2 2623.67 744.33 2624.73 744.6C2625.67 745 2626.13 745.67 2626.13 746.6L2625.93 747.6L2613.93 779.6Z" fill="#858585"/><path d="M2784.82 778C2785.35 778 2785.68 778.27 2785.82 778.8C2785.95 779.33 2786.02 779.93 2786.02 780.6C2786.02 782.2 2785.62 783 2784.82 783H2721.82C2720.88 783 2720.42 782.2 2720.42 780.6C2720.42 778.87 2720.88 778 2721.82 778C2733.95 777.73 2740.02 774.6 2740.02 768.6C2740.02 767.13 2739.42 764.73 2738.22 761.4L2729.22 735.4C2728.42 733 2726.82 731.8 2724.42 731.8H2679.82C2677.42 731.8 2675.82 732.93 2675.02 735.2C2673.68 739.2 2672.48 742.53 2671.42 745.2L2666.82 758.6C2665.88 761.8 2665.42 764.2 2665.42 765.8C2665.42 773.93 2671.95 778 2685.02 778C2685.95 778 2686.42 778.87 2686.42 780.6C2686.42 782.2 2685.95 783 2685.02 783H2634.82C2633.88 783 2633.42 782.2 2633.42 780.6C2633.42 778.87 2633.88 778 2634.82 778C2639.08 778 2643.22 776.67 2647.22 774C2651.22 771.2 2654.42 766.67 2656.82 760.4C2658.55 756.13 2673.75 715.93 2702.42 639.8C2703.08 637.93 2704.48 636.67 2706.62 636L2712.82 634.2C2713.75 633.8 2714.68 633.6 2715.62 633.6C2716.42 633.6 2716.95 633.73 2717.22 634C2717.62 634.27 2717.95 634.73 2718.22 635.4L2726.22 658.6C2731.15 672.6 2737.88 692 2746.42 716.8C2754.95 741.47 2760.02 755.93 2761.62 760.2C2763.62 765.27 2765.68 769.07 2767.82 771.6C2769.95 774.13 2772.28 775.87 2774.82 776.8C2777.48 777.6 2780.82 778 2784.82 778ZM2680.22 721.2C2680.22 723.33 2681.48 724.4 2684.02 724.4H2720.42C2722.95 724.4 2724.22 723.33 2724.22 721.2L2723.82 719.6L2705.62 666.8C2705.08 664.93 2704.35 663.53 2703.42 662.6C2702.62 661.67 2702.08 661.53 2701.82 662.2C2697.55 673 2690.48 692.13 2680.62 719.6L2680.22 721.2Z" fill="#858585"/><path d="M2857.45 785.6C2852.25 785.6 2846.58 784.87 2840.45 783.4C2834.32 782.07 2828.58 780.33 2823.25 778.2C2821.65 777.67 2819.98 777.4 2818.25 777.4C2815.45 777.4 2812.58 778.67 2809.65 781.2C2808.72 782 2807.78 782.4 2806.85 782.4C2805.65 782.4 2804.72 781.4 2804.05 779.4L2796.05 745.8L2795.65 744.2C2795.65 743.93 2795.78 743.67 2796.05 743.4C2796.45 743.13 2796.78 742.93 2797.05 742.8C2797.45 742.67 2797.72 742.53 2797.85 742.4C2798.12 742.27 2798.52 742.2 2799.05 742.2C2799.85 742.2 2800.58 742.73 2801.25 743.8C2815.52 766.47 2833.52 777.8 2855.25 777.8C2863.92 777.8 2871.38 775.6 2877.65 771.2C2884.05 766.8 2887.25 760 2887.25 750.8C2887.25 745.87 2885.85 741.4 2883.05 737.4C2880.38 733.27 2876.38 730 2871.05 727.6C2865.58 725.07 2857.72 722.13 2847.45 718.8C2839.05 716.27 2832.32 713.8 2827.25 711.4C2818.45 707.13 2812.12 702 2808.25 696C2804.52 690 2802.65 683.27 2802.65 675.8C2802.65 670.2 2803.98 664.27 2806.65 658C2809.32 651.6 2813.98 646.07 2820.65 641.4C2827.32 636.73 2836.32 634.4 2847.65 634.4C2851.92 634.4 2856.05 634.87 2860.05 635.8C2864.18 636.73 2868.78 638.13 2873.85 640C2876.25 640.67 2878.12 641 2879.45 641C2881.98 641 2884.38 640.13 2886.65 638.4C2887.72 637.47 2888.72 637 2889.65 637C2890.98 637 2891.85 637.87 2892.25 639.6L2900.65 668.6C2900.65 668.87 2900.72 669.33 2900.85 670C2900.98 670.53 2900.85 671 2900.45 671.4L2899.25 672C2898.45 672.27 2897.85 672.4 2897.45 672.4C2896.78 672.4 2896.12 671.93 2895.45 671C2893.85 668.33 2890.98 664.73 2886.85 660.2C2882.72 655.67 2877.18 651.4 2870.25 647.4C2863.32 643.4 2855.52 641.4 2846.85 641.4C2838.85 641.4 2832.78 643.13 2828.65 646.6C2824.52 649.93 2821.78 653.53 2820.45 657.4C2819.25 661.27 2818.65 664.4 2818.65 666.8C2818.65 675.6 2823.45 682.53 2833.05 687.6C2835.85 689.07 2839.32 690.53 2843.45 692C2847.72 693.47 2852.05 694.87 2856.45 696.2C2868.72 699.93 2877.72 703.2 2883.45 706C2892.78 710.67 2899.25 716.27 2902.85 722.8C2906.58 729.33 2908.45 736.13 2908.45 743.2C2908.45 751.2 2906.38 758.4 2902.25 764.8C2898.25 771.2 2892.38 776.27 2884.65 780C2877.05 783.73 2867.98 785.6 2857.45 785.6Z" fill="#858585"/><path d="M2961.08 783C2960.28 783 2959.88 782.13 2959.88 780.4C2959.88 778.8 2960.28 778 2961.08 778H2963.88C2969.22 778 2973.35 776.93 2976.28 774.8C2979.35 772.53 2980.88 768.6 2980.88 763V654.8C2980.88 650 2979.55 646.67 2976.88 644.8C2974.22 642.93 2970.55 642 2965.88 642C2965.08 642 2963.62 642.13 2961.48 642.4C2955.48 643.07 2948.88 645.8 2941.68 650.6C2934.48 655.27 2928.95 660.33 2925.08 665.8C2924.42 666.6 2923.75 667 2923.08 667C2922.82 667 2922.42 666.87 2921.88 666.6C2920.68 666.07 2920.08 665.53 2920.08 665C2920.08 664.6 2920.22 664.07 2920.48 663.4C2925.68 649.53 2928.68 641.6 2929.48 639.6C2930.28 637.47 2931.88 636.4 2934.28 636.4H3050.28C3052.68 636.4 3054.28 637.47 3055.08 639.6L3063.48 661L3064.48 664.2V665C3064.48 665.53 3063.95 666.07 3062.88 666.6C3062.35 666.87 3061.88 667 3061.48 667C3060.68 667 3060.02 666.6 3059.48 665.8C3055.62 660.33 3050.08 655.27 3042.88 650.6C3035.68 645.8 3029.08 643.07 3023.08 642.4C3020.95 642.13 3019.48 642 3018.68 642C3013.88 642 3010.15 643 3007.48 645C3004.95 646.87 3003.68 650.13 3003.68 654.8V763C3003.68 768.73 3005.22 772.67 3008.28 774.8C3011.35 776.93 3015.48 778 3020.68 778H3023.28C3024.22 778 3024.68 778.8 3024.68 780.4C3024.68 782.13 3024.22 783 3023.28 783H2961.08Z" fill="#858585"/><path d="M3076.59 783C3075.66 783 3075.19 782.13 3075.19 780.4C3075.19 778.67 3075.66 777.8 3076.59 777.8H3079.39C3084.86 777.8 3088.99 776.73 3091.79 774.6C3094.72 772.47 3096.19 768.6 3096.19 763L3096.39 656.4C3096.39 650.67 3094.86 646.73 3091.79 644.6C3088.86 642.47 3084.72 641.4 3079.39 641.4H3076.59C3075.66 641.4 3075.19 640.6 3075.19 639C3075.19 637.27 3075.66 636.4 3076.59 636.4H3138.79C3139.46 636.4 3139.86 636.6 3139.99 637C3140.26 637.4 3140.39 638.07 3140.39 639C3140.39 640.6 3139.86 641.4 3138.79 641.4H3136.19C3130.72 641.4 3126.52 642.47 3123.59 644.6C3120.79 646.73 3119.39 650.67 3119.39 656.4L3119.19 763C3119.19 768.73 3120.66 772.67 3123.59 774.8C3126.52 776.8 3130.72 777.8 3136.19 777.8H3138.79C3139.86 777.8 3140.39 778.67 3140.39 780.4C3140.39 782.13 3139.86 783 3138.79 783H3076.59Z" fill="#858585"/><path d="M3229.76 785.8C3218.82 785.8 3207.82 783.2 3196.76 778C3185.69 772.67 3176.36 764.53 3168.76 753.6C3161.29 742.67 3157.56 729.07 3157.56 712.8C3157.56 698.93 3160.62 686 3166.76 674C3172.89 662 3181.16 652.4 3191.56 645.2C3201.96 638 3213.29 634.4 3225.56 634.4C3229.69 634.4 3233.62 634.87 3237.36 635.8C3241.22 636.73 3245.29 638 3249.56 639.6C3251.56 640.27 3253.42 640.87 3255.16 641.4C3257.02 641.93 3258.56 642.2 3259.76 642.2C3262.29 642.2 3264.96 641.4 3267.76 639.8C3268.82 639.13 3269.62 638.8 3270.16 638.8C3271.22 638.8 3271.96 639.67 3272.36 641.4C3275.29 653.13 3277.56 662.67 3279.16 670L3279.56 672C3279.56 672.8 3279.02 673.53 3277.96 674.2C3277.69 674.33 3277.36 674.4 3276.96 674.4C3276.29 674.4 3275.56 673.93 3274.76 673C3274.22 672.2 3271.82 668.73 3267.56 662.6C3263.42 656.47 3257.82 651.47 3250.76 647.6C3243.69 643.6 3235.89 641.6 3227.36 641.6C3214.96 641.6 3205.42 646.07 3198.76 655C3192.22 663.93 3187.89 673.6 3185.76 684C3183.76 694.27 3182.76 703 3182.76 710.2C3182.76 724.73 3185.22 737 3190.16 747C3195.09 756.87 3201.36 764.2 3208.96 769C3216.69 773.8 3224.62 776.2 3232.76 776.2C3243.42 776.2 3252.29 773.47 3259.36 768C3266.42 762.4 3273.02 754.87 3279.16 745.4C3279.82 744.6 3280.42 744.2 3280.96 744.2C3281.36 744.2 3281.96 744.53 3282.76 745.2C3283.56 745.73 3283.96 746.4 3283.96 747.2L3283.56 748.4C3278.49 758.13 3271.62 766.8 3262.96 774.4C3254.29 782 3243.22 785.8 3229.76 785.8Z" fill="#858585"/><path d="M3468.41 785.8C3457.48 785.8 3446.48 783.2 3435.41 778C3424.35 772.67 3415.01 764.53 3407.41 753.6C3399.95 742.67 3396.21 729.07 3396.21 712.8C3396.21 698.93 3399.28 686 3405.41 674C3411.55 662 3419.81 652.4 3430.21 645.2C3440.61 638 3451.95 634.4 3464.21 634.4C3468.35 634.4 3472.28 634.87 3476.01 635.8C3479.88 636.73 3483.95 638 3488.21 639.6C3490.21 640.27 3492.08 640.87 3493.81 641.4C3495.68 641.93 3497.21 642.2 3498.41 642.2C3500.95 642.2 3503.61 641.4 3506.41 639.8C3507.48 639.13 3508.28 638.8 3508.81 638.8C3509.88 638.8 3510.61 639.67 3511.01 641.4C3513.95 653.13 3516.21 662.67 3517.81 670L3518.21 672C3518.21 672.8 3517.68 673.53 3516.61 674.2C3516.35 674.33 3516.01 674.4 3515.61 674.4C3514.95 674.4 3514.21 673.93 3513.41 673C3512.88 672.2 3510.48 668.73 3506.21 662.6C3502.08 656.47 3496.48 651.47 3489.41 647.6C3482.35 643.6 3474.55 641.6 3466.01 641.6C3453.61 641.6 3444.08 646.07 3437.41 655C3430.88 663.93 3426.55 673.6 3424.41 684C3422.41 694.27 3421.41 703 3421.41 710.2C3421.41 724.73 3423.88 737 3428.81 747C3433.75 756.87 3440.01 764.2 3447.61 769C3455.35 773.8 3463.28 776.2 3471.41 776.2C3482.08 776.2 3490.95 773.47 3498.01 768C3505.08 762.4 3511.68 754.87 3517.81 745.4C3518.48 744.6 3519.08 744.2 3519.61 744.2C3520.01 744.2 3520.61 744.53 3521.41 745.2C3522.21 745.73 3522.61 746.4 3522.61 747.2L3522.21 748.4C3517.15 758.13 3510.28 766.8 3501.61 774.4C3492.95 782 3481.88 785.8 3468.41 785.8Z" fill="#858585"/><path d="M3607.91 785.8C3596.97 785.8 3586.24 782.87 3575.71 777C3565.17 771.13 3556.44 762.47 3549.51 751C3542.71 739.53 3539.31 725.87 3539.31 710C3539.31 694.13 3542.71 680.53 3549.51 669.2C3556.44 657.73 3565.17 649.07 3575.71 643.2C3586.24 637.33 3596.97 634.4 3607.91 634.4C3618.71 634.4 3629.37 637.33 3639.91 643.2C3650.57 649.07 3659.31 657.73 3666.11 669.2C3672.91 680.53 3676.31 694.13 3676.31 710C3676.31 725.87 3672.91 739.53 3666.11 751C3659.31 762.47 3650.57 771.13 3639.91 777C3629.37 782.87 3618.71 785.8 3607.91 785.8ZM3607.91 779.4C3615.77 779.4 3622.97 776.8 3629.51 771.6C3636.17 766.4 3641.44 758.6 3645.31 748.2C3649.31 737.8 3651.31 725.07 3651.31 710C3651.31 695.07 3649.31 682.4 3645.31 672C3641.44 661.6 3636.17 653.87 3629.51 648.8C3622.97 643.6 3615.77 641 3607.91 641C3600.04 641 3592.77 643.6 3586.11 648.8C3579.57 653.87 3574.31 661.6 3570.31 672C3566.44 682.4 3564.51 695.07 3564.51 710C3564.51 725.07 3566.44 737.8 3570.31 748.2C3574.31 758.6 3579.57 766.4 3586.11 771.6C3592.77 776.8 3600.04 779.4 3607.91 779.4Z" fill="#858585"/><path d="M3710.71 786C3707.11 786 3704.05 784.73 3701.51 782.2C3699.11 779.67 3697.91 776.67 3697.91 773.2C3697.91 769.73 3699.11 766.8 3701.51 764.4C3704.05 761.87 3707.11 760.6 3710.71 760.6C3714.18 760.6 3717.18 761.87 3719.71 764.4C3722.25 766.8 3723.51 769.73 3723.51 773.2C3723.51 776.67 3722.25 779.67 3719.71 782.2C3717.18 784.73 3714.18 786 3710.71 786Z" fill="#858585"/><path d="M3796.81 806.8C3796.41 806.8 3796.08 806.6 3795.81 806.2C3795.54 805.8 3795.41 805.47 3795.41 805.2C3795.41 804.8 3795.54 804.47 3795.81 804.2C3798.61 801.8 3800.74 799.33 3802.21 796.8C3803.81 794.4 3804.61 792.2 3804.61 790.2C3804.61 787.8 3803.54 786 3801.41 784.8C3798.74 783.47 3796.68 781.93 3795.21 780.2C3793.74 778.47 3793.01 776.2 3793.01 773.4C3793.01 769.8 3794.21 766.8 3796.61 764.4C3799.14 761.87 3802.21 760.6 3805.81 760.6C3809.41 760.6 3812.41 761.87 3814.81 764.4C3817.34 766.93 3818.61 770.13 3818.61 774C3818.61 781.2 3816.48 787.67 3812.21 793.4C3807.94 799.27 3803.08 803.67 3797.61 806.6L3796.81 806.8Z" fill="#858585"/><path d="M3952.28 779.6C3951.48 781.87 3949.88 783 3947.48 783H3837.68C3836.74 783 3836.28 782.13 3836.28 780.4C3836.28 778.67 3836.74 777.8 3837.68 777.8H3840.48C3845.94 777.8 3850.14 776.8 3853.08 774.8C3856.01 772.67 3857.48 768.73 3857.48 763V656.4C3857.48 650.67 3855.94 646.73 3852.88 644.6C3849.81 642.47 3845.68 641.4 3840.48 641.4H3837.68C3836.74 641.4 3836.28 640.53 3836.28 638.8C3836.28 637.2 3836.74 636.4 3837.68 636.4H3900.08C3900.74 636.4 3901.14 636.6 3901.28 637C3901.54 637.4 3901.68 638.07 3901.68 639C3901.68 640.6 3901.14 641.4 3900.08 641.4H3897.48C3892.14 641.4 3887.94 642.47 3884.88 644.6C3881.94 646.73 3880.48 650.67 3880.48 656.4V764.6C3880.48 769.27 3881.81 772.4 3884.48 774C3887.28 775.6 3891.74 776.6 3897.88 777L3902.48 777.2L3909.28 777C3920.48 776.6 3929.88 773.6 3937.48 768C3945.21 762.4 3952.14 755.4 3958.28 747C3959.34 745.53 3960.08 744.67 3960.48 744.4C3960.61 744.27 3960.88 744.2 3961.28 744.2C3961.41 744.2 3962.01 744.33 3963.08 744.6C3964.01 745 3964.48 745.67 3964.48 746.6L3964.28 747.6L3952.28 779.6Z" fill="#858585"/><path d="M4016.56 783C4015.76 783 4015.36 782.13 4015.36 780.4C4015.36 778.8 4015.76 778 4016.56 778H4019.36C4024.69 778 4028.83 776.93 4031.76 774.8C4034.83 772.53 4036.36 768.6 4036.36 763V654.8C4036.36 650 4035.03 646.67 4032.36 644.8C4029.69 642.93 4026.03 642 4021.36 642C4020.56 642 4019.09 642.13 4016.96 642.4C4010.96 643.07 4004.36 645.8 3997.16 650.6C3989.96 655.27 3984.43 660.33 3980.56 665.8C3979.89 666.6 3979.23 667 3978.56 667C3978.29 667 3977.89 666.87 3977.36 666.6C3976.16 666.07 3975.56 665.53 3975.56 665C3975.56 664.6 3975.69 664.07 3975.96 663.4C3981.16 649.53 3984.16 641.6 3984.96 639.6C3985.76 637.47 3987.36 636.4 3989.76 636.4H4105.76C4108.16 636.4 4109.76 637.47 4110.56 639.6L4118.96 661L4119.96 664.2V665C4119.96 665.53 4119.43 666.07 4118.36 666.6C4117.83 666.87 4117.36 667 4116.96 667C4116.16 667 4115.49 666.6 4114.96 665.8C4111.09 660.33 4105.56 655.27 4098.36 650.6C4091.16 645.8 4084.56 643.07 4078.56 642.4C4076.43 642.13 4074.96 642 4074.16 642C4069.36 642 4065.63 643 4062.96 645C4060.43 646.87 4059.16 650.13 4059.16 654.8V763C4059.16 768.73 4060.69 772.67 4063.76 774.8C4066.83 776.93 4070.96 778 4076.16 778H4078.76C4079.69 778 4080.16 778.8 4080.16 780.4C4080.16 782.13 4079.69 783 4078.76 783H4016.56Z" fill="#858585"/><path d="M4132.47 783C4131.4 783 4130.87 782.13 4130.87 780.4C4130.87 778.8 4131.4 778 4132.47 778H4135.07C4140.4 778 4144.53 777 4147.47 775C4150.4 772.87 4151.87 768.93 4151.87 763.2V656.4C4151.87 650.53 4150.4 646.6 4147.47 644.6C4144.53 642.47 4140.4 641.4 4135.07 641.4H4132.47C4131.53 641.4 4131.07 640.53 4131.07 638.8V638C4131.2 636.93 4132.13 636.4 4133.87 636.4C4136.93 636.4 4139.67 636.33 4142.07 636.2L4164.87 636C4178.2 636 4188.93 636.2 4197.07 636.6C4208.8 637.13 4220.07 639.93 4230.87 645C4241.67 650.07 4250.6 658 4257.67 668.8C4264.87 679.47 4268.47 693.07 4268.47 709.6C4268.47 726.13 4264.87 739.8 4257.67 750.6C4250.6 761.27 4241.67 769.2 4230.87 774.4C4220.07 779.47 4208.8 782.27 4197.07 782.8C4192 783.07 4182 783.2 4167.07 783.2L4132.47 783ZM4192.27 777C4199.73 777 4207.33 775.13 4215.07 771.4C4222.93 767.67 4229.67 760.8 4235.27 750.8C4241 740.8 4243.87 727.07 4243.87 709.6C4243.87 692.13 4241 678.47 4235.27 668.6C4229.67 658.6 4223 651.73 4215.27 648C4207.53 644.27 4199.87 642.4 4192.27 642.4H4190.87C4184.73 642.4 4180.4 643.33 4177.87 645.2C4175.33 647.07 4174.07 650.33 4174.07 655V764.6C4174.07 769.27 4175.33 772.53 4177.87 774.4C4180.4 776.13 4184.73 777 4190.87 777H4192.27Z" fill="#858585"/><path d="M439.22 784C324.86 784 210.5 784 96 784C96 559.67 96 335.33 96.35 111.28C99.71 116.67 102.83 121.7 105.67 126.89C106.96 129.26 108.51 130.05 111.22 130.04C186.73 129.96 262.24 129.98 337.75 129.97C338.87 129.97 339.99 129.86 341.32 129.79C339.08 123.31 336.96 117.16 334.83 111C478.79 111 622.74 111 767.01 111.28C764.4 117.53 761.46 123.5 758.35 129.82C759.48 129.9 760.09 129.97 760.71 129.97C833.69 129.98 906.67 129.99 979.65 129.89C980.99 129.88 982.8 128.8 983.57 127.67C987.08 122.48 990.28 117.1 993.6 111.79C993.6 335.79 993.6 559.78 993.6 784C880.22 784 766.85 784 653.12 783.79C652.75 783.45 652.74 783.31 652.79 782.81C652.87 748.71 652.83 714.98 652.96 681.24C652.97 678.91 653.73 676.29 654.95 674.3C695.88 607.44 736.9 540.64 777.91 473.82C778.84 472.32 779.72 470.8 780.71 469.12C773.31 469.12 766.49 469.12 759.66 469.12C716.7 469.12 673.74 469.14 630.78 469.06C628.09 469.05 626.64 469.77 625.34 472.26C603.41 514.18 581.37 556.04 559.35 597.92C555.29 605.63 551.21 613.32 547.2 620.92C523.7 570.45 500.33 520.25 476.9 469.93C423.25 469.93 368.92 469.93 314.33 469.93C314.91 470.96 315.27 471.66 315.68 472.33C356.06 539.52 396.46 606.7 436.8 673.91C437.77 675.54 438.7 677.51 438.72 679.33C439.07 713.84 439.28 748.35 439.44 783.15C439.31 783.62 439.26 783.81 439.22 784ZM377.93 439.33C407.59 439.33 437.25 438.98 466.89 439.55C475.6 439.71 481.75 437.24 487.97 431.2C507.33 412.4 527.31 394.25 547.12 375.79C547.96 376.41 548.71 376.93 549.42 377.5C574.18 397.78 598.92 418.08 623.76 438.26C625.24 439.46 627.48 440.27 629.38 440.31C636.62 440.46 643.86 440.17 651.11 440.13C698.93 439.85 746.75 439.57 794.58 439.38C797.08 439.37 798.56 438.77 799.91 436.49C815.63 409.87 831.48 383.33 847.29 356.77C847.91 355.72 848.45 354.61 849.06 353.46C647.28 353.46 446.03 353.46 244.43 353.46C245.34 354.99 245.99 356.12 246.68 357.23C263.15 383.55 279.67 409.84 296.04 436.22C297.58 438.7 299.23 439.41 302.02 439.39C327.06 439.28 352.1 439.33 377.93 439.33ZM398.75 280C397.56 276.95 396.12 273.96 395.25 270.81C394.46 267.97 392.92 267.39 390.18 267.39C324.95 267.47 259.71 267.45 194.47 267.45C193.36 267.45 192.25 267.45 190.53 267.45C191.55 269.13 192.21 270.23 192.89 271.31C204.89 290.5 216.94 309.65 228.84 328.9C230.41 331.43 232.04 332.39 235.1 332.38C294.67 332.28 354.23 332.31 413.8 332.31C415.19 332.31 416.57 332.31 418.6 332.31C411.88 314.65 405.4 297.63 398.75 280ZM767.81 332.31C797.99 332.31 828.17 332.27 858.34 332.36C860.88 332.37 862.35 331.68 863.68 329.43C875.23 309.83 886.91 290.3 898.53 270.75C899.1 269.8 899.54 268.77 900.13 267.59C899.2 267.52 898.68 267.46 898.15 267.46C834.64 267.45 771.12 267.47 707.61 267.39C705.18 267.39 704.19 268.3 703.34 270.38C697.82 283.88 692.18 297.33 686.58 310.79C683.66 317.78 680.74 324.77 677.6 332.31C707.83 332.31 737.43 332.31 767.81 332.31ZM608.11 280.98C587.68 260.88 567.26 240.78 546.8 220.64C510.1 256.82 473.79 292.61 436.91 328.96C510.58 328.96 583.22 328.96 654.27 328.96C639.48 313.58 623.99 297.48 608.11 280.98ZM240.33 206.57C283.62 206.57 326.91 206.57 370.54 206.57C370.12 205.17 369.89 204.17 369.54 203.22C366.09 194.13 362.48 185.1 359.25 175.94C358.17 172.88 356.59 172.18 353.53 172.18C280.94 172.27 208.36 172.25 135.78 172.25C134.4 172.25 133.02 172.25 131.13 172.25C131.81 173.56 132.11 174.26 132.5 174.9C138.5 184.49 144.57 194.03 150.46 203.68C151.78 205.85 153.17 206.65 155.76 206.64C183.68 206.53 211.61 206.57 240.33 206.57ZM739 180.98C735.26 189.39 731.53 197.79 727.72 206.37C728.66 206.49 728.92 206.55 729.18 206.55C797.4 206.56 865.63 206.58 933.85 206.47C935.3 206.47 937.33 205.31 938.1 204.07C944.05 194.46 949.77 184.71 955.53 174.98C955.96 174.27 956.17 173.44 956.65 172.25C954.75 172.25 953.33 172.25 951.91 172.25C885.26 172.25 818.62 172.38 751.98 172.07C745.06 172.03 740.73 173.41 739 180.98ZM273.54 215.26C235.19 215.26 196.83 215.26 157.8 215.26C164.65 226.2 171.06 236.28 177.27 246.49C178.6 248.67 179.98 249.47 182.56 249.46C249.51 249.38 316.46 249.4 383.4 249.4C384.5 249.4 385.6 249.4 387.08 249.4C383.03 238.8 379.07 228.79 375.41 218.67C374.45 216.03 373.23 215.18 370.4 215.19C338.38 215.3 306.36 215.26 273.54 215.26ZM857.18 215.26C814.62 215.26 772.06 215.3 729.5 215.18C726.51 215.17 725.08 216.05 724 218.78C721.27 225.61 718.23 232.32 715.33 239.08C713.9 242.4 712.51 245.74 711.06 249.16C711.78 249.29 712.04 249.38 712.3 249.38C777.78 249.39 843.27 249.41 908.76 249.29C910.07 249.29 911.87 248.09 912.59 246.92C918.53 237.29 924.27 227.55 930.04 217.82C930.46 217.12 930.67 216.28 931.07 215.26C906.45 215.26 882.21 215.26 857.18 215.26ZM203.16 163.63C253.41 163.63 303.66 163.63 354.44 163.63C352.27 157.95 350.17 153 348.52 147.91C347.71 145.42 346.47 144.81 344 144.81C268.37 144.88 192.74 144.86 117.11 144.88C116.17 144.88 115.23 145.07 113.91 145.21C117.25 150.53 120.47 155.33 123.32 160.34C124.74 162.83 126.36 163.71 129.24 163.7C153.61 163.58 177.99 163.63 203.16 163.63ZM899.09 144.87C892.11 144.87 885.13 144.87 878.15 144.87C837.97 144.87 797.8 144.85 757.62 144.91C756.19 144.92 754.01 145.17 753.46 146.09C750.09 151.63 747.1 157.41 743.69 163.63C745.83 163.63 747.24 163.63 748.66 163.63C782.91 163.63 817.16 163.63 851.41 163.63C887.1 163.63 922.8 163.64 958.5 163.6C959.88 163.6 962.02 163.68 962.53 162.89C966.27 157.16 969.68 151.22 973.32 145.13C972.32 144.96 972.06 144.88 971.8 144.88C947.83 144.87 923.86 144.87 899.09 144.87ZM760.61 674.81C756.61 685.55 755.83 696.55 757.92 707.8C764.02 740.53 797.17 761.07 828.45 751.47C855.92 743.03 872.4 714.56 867.12 684.65C862.89 660.74 842.33 640.9 819.29 638.52C793.43 635.85 770.28 650.02 760.61 674.81Z" fill="white"/><path d="M334.46 111C336.96 117.16 339.08 123.31 341.32 129.79C339.99 129.86 338.87 129.97 337.75 129.97C262.24 129.98 186.73 129.96 111.22 130.04C108.51 130.05 106.96 129.26 105.67 126.89C102.83 121.7 99.71 116.67 96.75 111.28C175.89 111 254.99 111 334.46 111Z" fill="#E70012"/><path d="M993.6 111.39C990.28 117.1 987.07 122.48 983.57 127.67C982.8 128.8 980.99 129.88 979.65 129.88C906.67 129.99 833.69 129.98 760.71 129.97C760.09 129.97 759.48 129.9 758.35 129.82C761.46 123.5 764.4 117.53 767.38 111.28C842.81 111 918.2 111 993.6 111.39Z" fill="#E70012"/><path d="M439.59 784C439.26 783.81 439.31 783.62 439.77 783.25C440.85 783.12 441.51 783.2 442.16 783.2C512.35 783.2 582.54 783.19 652.73 783.18C652.74 783.31 652.75 783.45 652.75 783.79C581.82 784 510.89 784 439.59 784Z" fill="#FABCC2"/><path d="M652.79 782.81C582.54 783.19 512.35 783.2 442.16 783.2C441.51 783.2 440.85 783.12 439.86 782.97C439.28 748.35 439.07 713.84 438.72 679.33C438.7 677.51 437.77 675.54 436.8 673.91C396.46 606.7 356.06 539.52 315.68 472.33C315.27 471.66 314.91 470.96 314.33 469.93C368.92 469.93 423.25 469.93 476.9 469.93C500.33 520.25 523.7 570.45 547.2 620.92C551.21 613.32 555.29 605.63 559.35 597.92C581.37 556.04 603.41 514.18 625.34 472.26C626.64 469.77 628.09 469.05 630.78 469.06C673.74 469.14 716.7 469.12 759.66 469.12C766.49 469.12 773.31 469.12 780.71 469.12C779.72 470.8 778.84 472.32 777.91 473.83C736.9 540.64 695.88 607.44 654.95 674.3C653.73 676.29 652.97 678.91 652.96 681.24C652.83 714.98 652.87 748.71 652.79 782.81Z" fill="#E70112"/><path d="M377.54 439.33C352.1 439.33 327.06 439.28 302.02 439.39C299.23 439.4 297.58 438.69 296.04 436.22C279.67 409.84 263.15 383.55 246.68 357.23C245.99 356.12 245.34 354.99 244.43 353.46C446.03 353.46 647.28 353.46 849.06 353.46C848.45 354.61 847.92 355.72 847.29 356.77C831.48 383.33 815.63 409.87 799.91 436.49C798.56 438.77 797.08 439.37 794.58 439.38C746.76 439.57 698.93 439.85 651.11 440.13C643.87 440.17 636.62 440.46 629.38 440.31C627.48 440.27 625.24 439.46 623.76 438.26C598.93 418.08 574.18 397.77 549.42 377.5C548.72 376.93 547.96 376.41 547.13 375.78C527.31 394.25 507.33 412.4 487.97 431.2C481.75 437.24 475.6 439.71 466.89 439.54C437.25 438.98 407.59 439.33 377.54 439.33Z" fill="#E70113"/><path d="M398.83 280.3C405.4 297.63 411.88 314.66 418.6 332.31C416.57 332.31 415.19 332.31 413.8 332.31C354.23 332.31 294.67 332.28 235.1 332.39C232.04 332.39 230.41 331.43 228.84 328.9C216.94 309.65 204.89 290.5 192.89 271.32C192.21 270.23 191.55 269.13 190.53 267.45C192.25 267.45 193.36 267.45 194.47 267.45C259.71 267.45 324.95 267.47 390.18 267.4C392.92 267.39 394.46 267.97 395.25 270.81C396.12 273.96 397.56 276.95 398.83 280.3Z" fill="#E70113"/><path d="M767.42 332.31C737.43 332.31 707.83 332.31 677.59 332.31C680.74 324.77 683.66 317.78 686.57 310.79C692.18 297.33 697.81 283.88 703.34 270.38C704.19 268.3 705.18 267.39 707.61 267.39C771.12 267.47 834.64 267.45 898.15 267.46C898.68 267.46 899.2 267.52 900.13 267.59C899.54 268.76 899.1 269.8 898.53 270.75C886.91 290.3 875.22 309.83 863.68 329.43C862.35 331.68 860.88 332.37 858.34 332.36C828.17 332.27 797.99 332.31 767.42 332.31Z" fill="#E70113"/><path d="M608.31 281.18C623.99 297.48 639.48 313.58 654.27 328.96C583.23 328.96 510.58 328.96 436.92 328.96C473.79 292.61 510.1 256.82 546.8 220.64C567.26 240.78 587.69 260.88 608.31 281.18Z" fill="#E70213"/><path d="M239.93 206.57C211.61 206.57 183.68 206.53 155.76 206.64C153.17 206.65 151.78 205.85 150.46 203.68C144.57 194.03 138.5 184.49 132.5 174.9C132.11 174.26 131.81 173.56 131.13 172.25C133.02 172.25 134.4 172.25 135.78 172.25C208.36 172.25 280.94 172.27 353.53 172.18C356.59 172.18 358.17 172.88 359.25 175.94C362.48 185.1 366.09 194.13 369.53 203.22C369.89 204.17 370.12 205.17 370.54 206.57C326.91 206.57 283.62 206.57 239.93 206.57Z" fill="#E70516"/><path d="M739.12 180.71C740.73 173.41 745.06 172.03 751.98 172.07C818.62 172.38 885.26 172.25 951.91 172.26C953.33 172.26 954.75 172.26 956.65 172.26C956.17 173.44 955.96 174.27 955.53 174.98C949.77 184.71 944.05 194.46 938.1 204.07C937.33 205.31 935.3 206.47 933.85 206.47C865.63 206.58 797.4 206.56 729.18 206.55C728.92 206.55 728.66 206.49 727.72 206.37C731.53 197.79 735.26 189.39 739.12 180.71Z" fill="#E70516"/><path d="M273.94 215.26C306.36 215.26 338.38 215.3 370.4 215.19C373.23 215.18 374.45 216.03 375.41 218.67C379.08 228.79 383.03 238.79 387.08 249.4C385.61 249.4 384.5 249.4 383.4 249.4C316.46 249.4 249.51 249.38 182.56 249.46C179.98 249.46 178.6 248.67 177.27 246.49C171.06 236.28 164.65 226.2 157.8 215.26C196.83 215.26 235.19 215.26 273.94 215.26Z" fill="#E70012"/><path d="M857.57 215.26C882.21 215.26 906.45 215.26 931.07 215.26C930.66 216.28 930.46 217.12 930.04 217.82C924.27 227.55 918.52 237.29 912.59 246.92C911.87 248.09 910.06 249.29 908.76 249.29C843.27 249.41 777.78 249.39 712.3 249.38C712.04 249.38 711.78 249.29 711.06 249.16C712.5 245.74 713.9 242.4 715.32 239.08C718.23 232.32 721.27 225.61 723.99 218.78C725.08 216.05 726.51 215.17 729.5 215.18C772.06 215.3 814.62 215.26 857.57 215.26Z" fill="#E70012"/><path d="M202.76 163.63C177.99 163.63 153.62 163.58 129.24 163.7C126.36 163.71 124.74 162.83 123.32 160.34C120.47 155.33 117.25 150.53 113.91 145.22C115.23 145.07 116.17 144.88 117.11 144.88C192.74 144.87 268.37 144.88 344.01 144.81C346.47 144.81 347.71 145.42 348.52 147.91C350.17 153 352.27 157.95 354.44 163.63C303.66 163.63 253.41 163.63 202.76 163.63Z" fill="#E70517"/><path d="M899.49 144.87C923.86 144.87 947.83 144.87 971.8 144.88C972.06 144.88 972.32 144.96 973.32 145.13C969.68 151.22 966.27 157.16 962.53 162.89C962.02 163.68 959.88 163.6 958.5 163.6C922.8 163.64 887.1 163.63 851.4 163.63C817.16 163.63 782.91 163.63 748.66 163.63C747.24 163.63 745.82 163.63 743.69 163.63C747.1 157.41 750.09 151.63 753.46 146.09C754.01 145.17 756.19 144.92 757.62 144.91C797.8 144.85 837.97 144.87 878.15 144.87C885.13 144.87 892.11 144.87 899.49 144.87Z" fill="#E70617"/><path d="M760.75 674.54C770.28 650.02 793.43 635.85 819.29 638.52C842.33 640.9 862.9 660.74 867.12 684.65C872.4 714.56 855.92 743.03 828.45 751.47C797.17 761.07 764.02 740.53 757.93 707.8C755.83 696.55 756.61 685.55 760.75 674.54ZM804.18 650.17C778.69 655.16 762.64 682.09 769.54 708.28C776.01 732.83 799.81 747.43 823.36 741.28C842.8 736.22 856.35 718.26 857 696.69C857.88 667.87 832.59 645.22 804.18 650.17Z" fill="#E70517"/><path d="M804.52 650.09C832.59 645.22 857.88 667.87 857 696.69C856.35 718.26 842.8 736.22 823.36 741.28C799.81 747.43 776.01 732.83 769.54 708.28C762.64 682.09 778.69 655.16 804.52 650.09ZM817.74 711.15C820.46 715.34 823.13 719.56 825.93 723.7C826.52 724.59 827.55 725.73 828.44 725.78C832.56 726 836.69 725.88 841.56 725.88C835.07 716.5 831.37 706.29 822.45 699.73C824.49 699 826.27 698.5 827.92 697.72C834.16 694.8 837.32 688.53 836.45 681.05C835.57 673.5 831.6 667.81 825.1 667.25C813.38 666.24 801.58 666.2 789.8 665.75C789.8 686.28 789.8 705.95 789.8 725.63C793.78 725.63 797.52 725.63 801.6 725.63C801.6 717.25 801.6 709.15 801.6 701.36C810.15 699.37 813.9 704.83 817.74 711.15Z" fill="#FFFDFD"/><path d="M817.57 710.91C813.9 704.83 810.15 699.37 801.6 701.36C801.6 709.15 801.6 717.25 801.6 725.63C797.52 725.63 793.78 725.63 789.8 725.63C789.8 705.94 789.8 686.28 789.8 665.75C801.58 666.2 813.38 666.24 825.1 667.25C831.6 667.81 835.57 673.5 836.45 681.05C837.32 688.53 834.16 694.8 827.92 697.72C826.27 698.5 824.48 698.99 822.45 699.73C831.37 706.29 835.06 716.5 841.56 725.88C836.69 725.88 832.55 726 828.44 725.78C827.55 725.73 826.52 724.59 825.92 723.7C823.13 719.56 820.46 715.34 817.57 710.91ZM801.42 683.18C801.42 685.78 801.42 688.38 801.42 690.89C807.4 690.89 813.02 691.17 818.61 690.79C822.52 690.53 824.5 687.68 824.46 683.71C824.43 680.03 822.37 677.02 818.79 676.78C813.08 676.41 807.33 676.68 801.42 676.68C801.42 678.76 801.42 680.58 801.42 683.18Z" fill="#E70415"/><path d="M801.42 682.8C801.42 680.58 801.42 678.76 801.42 676.68C807.34 676.68 813.08 676.41 818.79 676.78C822.37 677.02 824.43 680.03 824.46 683.71C824.5 687.68 822.52 690.53 818.61 690.79C813.03 691.17 807.4 690.89 801.42 690.89C801.42 688.38 801.42 685.78 801.42 682.8Z" fill="#FEFBFB"/></svg>